<?xml version="1.0" encoding="utf-8"?>
<!-- Generator: Adobe Illustrator 19.0.0, SVG Export Plug-In . SVG Version: 6.00 Build 0)  -->
<svg version="1.1" id="Capa_1" xmlns="http://www.w3.org/2000/svg" xmlns:xlink="http://www.w3.org/1999/xlink" x="0px" y="0px"
	 viewBox="19 -19 58 58" style="enable-background:new 19 -19 58 58;" xml:space="preserve">
<style type="text/css">
	.st0{fill:url(#SVGID_1_);}
	.st1{fill:url(#SVGID_2_);}
	.st2{fill:url(#SVGID_3_);}
	.st3{fill:url(#SVGID_4_);}
	.st4{fill:url(#SVGID_5_);}
	.st5{fill:url(#SVGID_6_);}
</style>
<g>
	<linearGradient id="SVGID_1_" gradientUnits="userSpaceOnUse" x1="21.8741" y1="-16.8439" x2="72.5408" y2="36.8228">
		<stop  offset="0" style="stop-color:#21A2A8"/>
		<stop  offset="1" style="stop-color:#6BB27E"/>
	</linearGradient>
	<path class="st0" d="M40-5h-5v-5c0-0.6-0.4-1-1-1s-1,0.4-1,1v5h-5c-0.6,0-1,0.4-1,1s0.4,1,1,1h5v5c0,0.6,0.4,1,1,1s1-0.4,1-1v-5h5
		c0.6,0,1-0.4,1-1S40.6-5,40-5z"/>
	<linearGradient id="SVGID_2_" gradientUnits="userSpaceOnUse" x1="36.6786" y1="-30.8207" x2="87.3452" y2="22.8459">
		<stop  offset="0" style="stop-color:#21A2A8"/>
		<stop  offset="1" style="stop-color:#6BB27E"/>
	</linearGradient>
	<path class="st1" d="M68-5H56c-0.6,0-1,0.4-1,1s0.4,1,1,1h12c0.6,0,1-0.4,1-1S68.6-5,68-5z"/>
	<linearGradient id="SVGID_3_" gradientUnits="userSpaceOnUse" x1="22.2879" y1="-17.2345" x2="72.9546" y2="36.4321">
		<stop  offset="0" style="stop-color:#21A2A8"/>
		<stop  offset="1" style="stop-color:#6BB27E"/>
	</linearGradient>
	<path class="st2" d="M49-19h-2H19V9v2v28h28h2h28V11V9v-28H49z M21-17h26V9H21V-17z M21,37V11h26v26H21z M75,37H49V11h26V37z M49,9
		v-26h26V9H49z"/>
	<linearGradient id="SVGID_4_" gradientUnits="userSpaceOnUse" x1="21.2042" y1="-16.2114" x2="71.8708" y2="37.4553">
		<stop  offset="0" style="stop-color:#21A2A8"/>
		<stop  offset="1" style="stop-color:#6BB27E"/>
	</linearGradient>
	<path class="st3" d="M56,28h12c0.6,0,1-0.4,1-1s-0.4-1-1-1H56c-0.6,0-1,0.4-1,1S55.4,28,56,28z"/>
	<linearGradient id="SVGID_5_" gradientUnits="userSpaceOnUse" x1="24.1992" y1="-19.039" x2="74.8659" y2="34.6277">
		<stop  offset="0" style="stop-color:#21A2A8"/>
		<stop  offset="1" style="stop-color:#6BB27E"/>
	</linearGradient>
	<path class="st4" d="M56,22h12c0.6,0,1-0.4,1-1s-0.4-1-1-1H56c-0.6,0-1,0.4-1,1S55.4,22,56,22z"/>
	<linearGradient id="SVGID_6_" gradientUnits="userSpaceOnUse" x1="7.8972" y1="-3.6483" x2="58.5639" y2="50.0183">
		<stop  offset="0" style="stop-color:#21A2A8"/>
		<stop  offset="1" style="stop-color:#6BB27E"/>
	</linearGradient>
	<path class="st5" d="M39.7,18.3c-0.4-0.4-1-0.4-1.4,0L34,22.6l-4.3-4.3c-0.4-0.4-1-0.4-1.4,0s-0.4,1,0,1.4l4.3,4.3l-4.3,4.3
		c-0.4,0.4-0.4,1,0,1.4c0.2,0.2,0.5,0.3,0.7,0.3s0.5-0.1,0.7-0.3l4.3-4.3l4.3,4.3c0.2,0.2,0.5,0.3,0.7,0.3s0.5-0.1,0.7-0.3
		c0.4-0.4,0.4-1,0-1.4L35.4,24l4.3-4.3C40.1,19.3,40.1,18.7,39.7,18.3z"/>
</g>
</svg>
