<?xml version="1.0" encoding="utf-8"?>
<!-- Generator: Adobe Illustrator 19.0.0, SVG Export Plug-In . SVG Version: 6.00 Build 0)  -->
<svg version="1.1" id="Capa_1" xmlns="http://www.w3.org/2000/svg" xmlns:xlink="http://www.w3.org/1999/xlink" x="0px" y="0px"
	 viewBox="230 -230 480 480" style="enable-background:new 230 -230 480 480;" xml:space="preserve">
<style type="text/css">
	.st0{fill:url(#SVGID_1_);}
	.st1{fill:url(#SVGID_2_);}
	.st2{fill:url(#SVGID_3_);}
</style>
<g>
	<g>
		<g>
			<linearGradient id="SVGID_1_" gradientUnits="userSpaceOnUse" x1="259.5288" y1="-207.5555" x2="675.5288" y2="206.4445">
				<stop  offset="0" style="stop-color:#21A2A8"/>
				<stop  offset="1" style="stop-color:#6BB27E"/>
			</linearGradient>
			<path class="st0" d="M642-214h-24v-8c0-4.4-3.6-8-8-8s-8,3.6-8,8v8h-16v-8c0-4.4-3.6-8-8-8s-8,3.6-8,8v8h-16v-8c0-4.4-3.6-8-8-8
				s-8,3.6-8,8v8h-16v-8c0-4.4-3.6-8-8-8c-4.4,0-8,3.6-8,8v8H394v-8c0-4.4-3.6-8-8-8s-8,3.6-8,8v8h-16v-8c0-4.4-3.6-8-8-8
				s-8,3.6-8,8v8h-16v-8c0-4.4-3.6-8-8-8s-8,3.6-8,8v8h-16v-8c0-4.4-3.6-8-8-8s-8,3.6-8,8v8h-24c-4.4,0-8,3.6-8,8v376
				c0,4.4,3.6,8,8,8h232.4c4.4,0,8-3.6,8-8c0-0.2,0-0.4,0-0.6l-0.1-0.9c-0.2-2.2-0.3-4.3-0.3-6.5c0-7.9,1-15.8,2.8-23.5
				c1.8-7.7,4.4-15.1,7.9-22.2c0.3-0.7,0.7-1.4,1-2.1c1.1-2,2.2-4,3.4-6c0.4-0.6,0.7-1.2,1.1-1.9c1.3-2,2.7-4,4.1-5.9
				c0.3-0.4,0.6-0.8,0.9-1.2c1.6-2.1,3.3-4.1,5-6.1l0.2-0.3c11.4-12.8,25.8-22.5,41.8-28.5l1.4-0.5c2.2-0.8,4.4-1.4,6.6-2.1
				c1-0.3,2-0.5,3-0.8c1.9-0.5,3.8-0.9,5.7-1.3c1.6-0.3,3.3-0.5,4.9-0.7c1.4-0.2,2.9-0.4,4.3-0.6c3.2-0.3,6.5-0.5,9.7-0.5
				c2.2,0,4.3,0.2,6.4,0.3l1,0.1c0.1,0,0.1,0,0.2,0c10.1,0.8,20,3,29.5,6.6c4.1,1.6,8.8-0.4,10.4-4.5c0.4-0.9,0.5-1.9,0.5-2.9V-206
				C650-210.4,646.4-214,642-214z M498.4,101.7c-0.3,0.5-0.6,0.9-0.8,1.3c-1.2,2-2.2,4.1-3.2,6.2c-0.6,1.2-1.1,2.3-1.7,3.5
				c-0.9,1.9-1.7,3.9-2.5,5.9c-0.1,0.2-0.2,0.4-0.2,0.6V82h22.8C507.4,88.1,502.6,94.7,498.4,101.7z M538,60.7
				c-2.8,1.7-5.4,3.6-8,5.6V66h-40V18h48V60.7z M538,2h-48v-48h48V2z M538-62h-48v-48h48V-62z M602-46V2h-48v-48H602z M554-62v-48
				h48v48H554z M602,42c-3.7,0-7.4,0.2-11.1,0.6c-1.6,0.1-3.1,0.4-4.6,0.6c-2,0.3-3.9,0.5-5.8,0.9c-1.9,0.4-4,0.8-6,1.3
				c-1.2,0.3-2.4,0.6-3.7,0.9c-2.4,0.7-4.8,1.4-7.2,2.2c-0.3,0.1-0.6,0.2-0.9,0.3c-2.9,1-5.8,2.1-8.6,3.3V18h48V42L602,42z
				 M634,46.4c-5.3-1.5-10.6-2.6-16-3.3V-118c0-4.4-3.6-8-8-8H290c-4.4,0-8,3.6-8,8v256c0,4.4,3.6,8,8,8h193.2
				c-0.8,5.3-1.2,10.6-1.2,16H266v-304h368V46.4z M426,66V18h48v48H426z M474,82v48h-48V82H474z M426,2v-48h48V2H426z M426-62v-48
				h48v48H426z M362,66V18h48v48H362z M410,82v48h-48V82H410z M362,2v-48h48V2H362z M362-62v-48h48v48H362z M298,66V18h48v48H298z
				 M346,82v48h-48V82H346z M298,2v-48h48V2H298z M298-62v-48h48v48H298z M634-158H266v-40h16v8c0,4.4,3.6,8,8,8s8-3.6,8-8v-8h16v8
				c0,4.4,3.6,8,8,8s8-3.6,8-8v-8h16v8c0,4.4,3.6,8,8,8s8-3.6,8-8v-8h16v8c0,4.4,3.6,8,8,8s8-3.6,8-8v-8h112v8c0,4.4,3.6,8,8,8
				c4.4,0,8-3.6,8-8v-8h16v8c0,4.4,3.6,8,8,8s8-3.6,8-8v-8h16v8c0,4.4,3.6,8,8,8s8-3.6,8-8v-8h16v8c0,4.4,3.6,8,8,8s8-3.6,8-8v-8h16
				V-158z"/>
		</g>
	</g>
	<g>
		<g>
			<linearGradient id="SVGID_2_" gradientUnits="userSpaceOnUse" x1="245.1484" y1="-193.1057" x2="661.1484" y2="220.8943">
				<stop  offset="0" style="stop-color:#21A2A8"/>
				<stop  offset="1" style="stop-color:#6BB27E"/>
			</linearGradient>
			<path class="st1" d="M602,74c-48.6,0-88,39.4-88,88s39.4,88,88,88s88-39.4,88-88C689.9,113.4,650.6,74.1,602,74z M602,234
				c-39.8,0-72-32.2-72-72c0-39.8,32.2-72,72-72c39.8,0,72,32.2,72,72C674,201.7,641.7,234,602,234z"/>
		</g>
	</g>
	<g>
		<g>
			<linearGradient id="SVGID_3_" gradientUnits="userSpaceOnUse" x1="265.0668" y1="-213.1203" x2="681.0668" y2="200.8797">
				<stop  offset="0" style="stop-color:#21A2A8"/>
				<stop  offset="1" style="stop-color:#6BB27E"/>
			</linearGradient>
			<path class="st2" d="M647.5,116.3c-3.1-3-8-3-11.1,0L602,150.7l-18.3-18.3c-3.2-3.1-8.2-3-11.3,0.2c-3,3.1-3,8,0,11.1l24,24
				c3.1,3.1,8.2,3.1,11.3,0l40-40C650.7,124.5,650.6,119.4,647.5,116.3z"/>
		</g>
	</g>
</g>
</svg>
