<?xml version="1.0" encoding="utf-8"?>
<!-- Generator: Adobe Illustrator 19.0.0, SVG Export Plug-In . SVG Version: 6.00 Build 0)  -->
<svg version="1.1" id="Layer_1" xmlns="http://www.w3.org/2000/svg" xmlns:xlink="http://www.w3.org/1999/xlink" x="0px" y="0px"
	 viewBox="222 -221 463 463" style="enable-background:new 222 -221 463 463;" xml:space="preserve">
<style type="text/css">
	.st0{fill:url(#SVGID_1_);}
	.st1{fill:url(#SVGID_2_);}
	.st2{fill:url(#SVGID_3_);}
</style>
<g>
	<g>
		<g>
			<linearGradient id="SVGID_1_" gradientUnits="userSpaceOnUse" x1="391.4903" y1="-277.6884" x2="703.4903" y2="154.3116">
				<stop  offset="0" style="stop-color:#21A2A8"/>
				<stop  offset="1" style="stop-color:#6BB27E"/>
			</linearGradient>
			<path class="st0" d="M604.4-221L604.4-221c-12.2,0-22.7,9.1-24.4,21.1l-35.9,251c-1.7,12,5.8,23.2,17.6,26.1l12,3l-6.5,129.3
				c-0.4,8.5,2.6,16.6,8.5,22.8s13.8,9.6,22.4,9.6c17,0,30.9-13.9,30.9-30.9v-407.5C629-210,618-221,604.4-221z M614,211.1
				L614,211.1c0,8.8-7.1,15.9-15.9,15.9c-4.4,0-8.5-1.8-11.5-4.9c-3-3.2-4.6-7.4-4.4-11.8L589,74.9c0.2-3.6-2.2-6.8-5.7-7.6l-18-4.5
				c-4.2-1.1-7-5.1-6.4-9.4l35.9-251c0.7-4.7,4.8-8.3,9.5-8.3h0c5.3,0,9.6,4.3,9.6,9.6L614,211.1L614,211.1z"/>
			<linearGradient id="SVGID_2_" gradientUnits="userSpaceOnUse" x1="312.5616" y1="-220.6844" x2="624.5616" y2="211.3156">
				<stop  offset="0" style="stop-color:#21A2A8"/>
				<stop  offset="1" style="stop-color:#6BB27E"/>
			</linearGradient>
			<path class="st1" d="M509-213.9c-0.2-4.1-3.7-7.3-7.9-7.1c-4.1,0.2-7.3,3.7-7.1,7.9L500.4-85H477v-128.5c0-4.1-3.4-7.5-7.5-7.5
				c-4.1,0-7.5,3.4-7.5,7.5V-85h-23.4l6.4-128.1c0.2-4.1-3-7.7-7.1-7.9c-4.1-0.2-7.7,3-7.9,7.1l-7.5,150.9
				c-0.4,8.2,3.6,16.2,10.4,20.7l9.1,6c2.5,1.6,3.9,4.4,3.8,7.3l-7.1,239.2c-0.2,8.4,2.9,16.3,8.7,22.4c5.9,6,13.7,9.3,22.1,9.3
				s16.3-3.3,22.1-9.3c5.9-6,9-14,8.7-22.4l-7.1-239.1c-0.1-2.9,1.3-5.7,3.8-7.3l9.1-6c6.8-4.6,10.8-12.5,10.4-20.7L509-213.9z
				 M497.8-54.7l-9.1,6c-6.8,4.5-10.7,12.1-10.5,20.2l7.1,239.1c0.1,4.3-1.5,8.4-4.5,11.5c-3,3.1-7,4.8-11.4,4.8s-8.3-1.7-11.4-4.8
				s-4.6-7.2-4.5-11.5l7.1-239.1c0.2-8.2-3.7-15.7-10.5-20.2l-9.1-6c-2.5-1.7-3.9-4.5-3.8-7.5l0.4-7.8h63.3l0.4,7.8
				C501.7-59.2,500.3-56.4,497.8-54.7z"/>
			<linearGradient id="SVGID_3_" gradientUnits="userSpaceOnUse" x1="224.3764" y1="-156.9951" x2="536.3765" y2="275.0049">
				<stop  offset="0" style="stop-color:#21A2A8"/>
				<stop  offset="1" style="stop-color:#6BB27E"/>
			</linearGradient>
			<path class="st2" d="M341.5-221c-15.6,0-37.3,7.8-51.6,45.2c-8.8,23-11.9,50.1-11.9,66.3c0,22.3,11.4,42.6,30.5,54.2
				c5.3,3.2,8.4,8.7,8.2,14.6l-6.1,251c-0.2,8.4,2.9,16.3,8.8,22.4c5.9,6,13.7,9.3,22.1,9.3s16.3-3.3,22.1-9.3c5.9-6,9-14,8.8-22.4
				l-6.1-251c-0.1-5.9,2.9-11.4,8.2-14.6c19.1-11.6,30.5-31.9,30.5-54.2c0-16.2-3.1-43.3-11.9-66.3C378.8-213.2,357.1-221,341.5-221
				z M366.7-68.1c-9.8,6-15.7,16.6-15.4,27.8l6.1,251c0.1,4.3-1.5,8.4-4.5,11.5c-3,3.1-7.1,4.8-11.4,4.8s-8.4-1.7-11.4-4.8
				c-3-3.1-4.6-7.2-4.5-11.5l6.1-251c0.3-11.2-5.6-21.8-15.4-27.8C301.7-77,293-92.5,293-109.5c0-31.5,11.9-96.5,48.5-96.5
				s48.5,65,48.5,96.5C390-92.5,381.3-77,366.7-68.1z"/>
		</g>
	</g>
</g>
</svg>
