<?xml version="1.0" encoding="utf-8"?>
<!-- Generator: Adobe Illustrator 19.0.0, SVG Export Plug-In . SVG Version: 6.00 Build 0)  -->
<svg version="1.1" id="Capa_1" xmlns="http://www.w3.org/2000/svg" xmlns:xlink="http://www.w3.org/1999/xlink" x="0px" y="0px"
	 viewBox="18 -18.8 56.8 56.8" style="enable-background:new 18 -18.8 56.8 56.8;" xml:space="preserve">
<style type="text/css">
	.st0{fill:url(#SVGID_1_);}
	.st1{fill:url(#SVGID_2_);}
	.st2{fill:url(#SVGID_3_);}
	.st3{fill:url(#SVGID_4_);}
	.st4{fill:url(#SVGID_5_);}
	.st5{fill:url(#SVGID_6_);}
	.st6{fill:url(#SVGID_7_);}
	.st7{fill:url(#SVGID_8_);}
</style>
<g>
	<linearGradient id="SVGID_1_" gradientUnits="userSpaceOnUse" x1="39.5872" y1="-24.3154" x2="74.2122" y2="28.3096">
		<stop  offset="0" style="stop-color:#21A2A8"/>
		<stop  offset="1" style="stop-color:#6BB27E"/>
	</linearGradient>
	<path class="st0" d="M54.3,6.5c0.1,0,0.2,0.1,0.3,0.1c0.4,0,0.8-0.3,0.9-0.7c0.3-0.9,1.3-1.4,2.2-1.1c2,0.7,4.1-0.4,4.8-2.4
		c0.2-0.5-0.1-1.1-0.6-1.3c-0.5-0.2-1.1,0.1-1.3,0.6c-0.3,0.9-1.3,1.4-2.2,1.1c-2-0.7-4.1,0.4-4.8,2.4C53.5,5.7,53.7,6.3,54.3,6.5z"
		/>
	<linearGradient id="SVGID_2_" gradientUnits="userSpaceOnUse" x1="44.4379" y1="-27.5069" x2="79.0629" y2="25.1181">
		<stop  offset="0" style="stop-color:#21A2A8"/>
		<stop  offset="1" style="stop-color:#6BB27E"/>
	</linearGradient>
	<path class="st1" d="M56.6-0.5c0.1,0,0.2,0.1,0.3,0.1c0.4,0,0.8-0.3,0.9-0.7c0.2-0.4,0.5-0.8,0.9-1s0.9-0.2,1.3-0.1
		c2,0.7,4.1-0.4,4.8-2.4c0.2-0.5-0.1-1.1-0.6-1.3C63.8-6,63.2-5.7,63-5.2c-0.3,0.9-1.3,1.4-2.2,1.1c-1-0.3-2-0.3-2.9,0.2
		C57-3.5,56.3-2.7,56-1.8C55.8-1.2,56.1-0.7,56.6-0.5z"/>
	<linearGradient id="SVGID_3_" gradientUnits="userSpaceOnUse" x1="48.7486" y1="-30.3431" x2="83.3736" y2="22.2819">
		<stop  offset="0" style="stop-color:#21A2A8"/>
		<stop  offset="1" style="stop-color:#6BB27E"/>
	</linearGradient>
	<path class="st2" d="M59-7.5c0.1,0,0.2,0.1,0.3,0.1c0.4,0,0.8-0.3,0.9-0.7c0.2-0.7,1-1,1.6-0.8c0.8,0.3,1.7,0.2,2.5-0.2
		c0.8-0.4,1.4-1.1,1.7-1.9c0.2-0.5-0.1-1.1-0.6-1.3c-0.5-0.2-1.1,0.1-1.3,0.6c-0.1,0.3-0.3,0.6-0.7,0.7c-0.3,0.2-0.7,0.2-1,0.1
		c-1.7-0.6-3.6,0.3-4.2,2.1C58.2-8.2,58.5-7.6,59-7.5z"/>
	<linearGradient id="SVGID_4_" gradientUnits="userSpaceOnUse" x1="29.3747" y1="-17.596" x2="63.9997" y2="35.029">
		<stop  offset="0" style="stop-color:#21A2A8"/>
		<stop  offset="1" style="stop-color:#6BB27E"/>
	</linearGradient>
	<path class="st3" d="M66.2,6.4c-0.2-0.1-0.4-0.2-0.6-0.2c2-6.5,3.1-12.8,3.2-18.8c0-1.9-0.9-4.4-2.7-5.6c-0.9-0.6-2.4-1-4.3,0
		c-3,1.5-5.1,6.1-6.8,9.7c-0.1,0.2-0.2,0.4-0.3,0.6c-0.4-1.7-1.5-3.2-3.2-4c-0.4-1.9-1.9-3.3-3.7-3.7c0-0.1,0-0.2-0.1-0.3
		c-0.4-1.3-1.5-2.3-2.9-2.4c-0.7-0.1-1.5,0.1-2.1,0.4c-0.5-0.3-1.1-0.5-1.8-0.5c-1.7,0-3.2,1.2-3.6,2.8c-1.9,0.5-3.3,2.3-3.3,4.3
		c-2.2,0.6-3.7,2.5-3.7,4.9c0,0.6,0.1,1.2,0.3,1.8c-0.6,0.7-0.9,1.6-0.9,2.5c0,0.5,0.1,1.1,0.3,1.6c-1-1.1-2.4-2-4-1.9
		c-0.6,0-1,0.5-1,1c0,0.5,0.5,1,1,1c0,0,0.1,0,0.1,0c0.9,0,1.8,0.6,2.4,1.3c-1.6,0.5-3.5,1.2-4.4,2.9c-0.5,1-0.6,2.3-0.2,3.7
		c-0.2,0.3-0.3,0.6-0.3,1l1.7,24.2c0.2,3,2.7,5.4,5.7,5.4h28.1c3,0,5.5-2.4,5.7-5.4l1.7-25c0,0,0,0,0,0C66.8,7.1,66.6,6.7,66.2,6.4z
		 M55.6-5.1c0.4-0.7,0.8-1.7,1.3-2.6c1.5-3.2,3.6-7.6,5.9-8.8c0.9-0.4,1.6-0.5,2.3,0c1.2,0.7,1.8,2.6,1.8,3.9
		c-0.2,5.9-1.2,12.1-3.2,18.5C63.6,6,63.5,6.5,63.3,7l-1.7,0.8c0,0-0.1,0-0.1,0.1c-0.5,0.3-1,0.4-1.6,0.4c-0.6,0-1.1-0.2-1.6-0.4
		l-0.7-0.4c-0.8-0.5-1.7-0.7-2.7-0.7c0,0,0,0,0,0c-0.9,0-1.9,0.2-2.7,0.7l-0.7,0.4c-0.4,0.2-0.8,0.4-1.3,0.4c0-0.1,0.1-0.2,0.1-0.3
		c0.3-0.9,0.6-1.8,0.9-2.8c0.1-0.3,0.2-0.7,0.4-1c0.3-0.7,0.5-1.4,0.8-2.1c0.1-0.3,0.2-0.6,0.4-1C53.6-1,54.5-3.1,55.6-5.1z
		 M42.8-2.7c0.1-0.1,0.2-0.3,0.3-0.4c0,0,0,0,0,0c0.1-0.1,0.1-0.2,0.2-0.3c0.2-0.5,0.3-1,0.2-1.5l4.2-0.9c0,0.1,0.1,0.3,0.1,0.4
		c0.2,0.5,0.5,0.8,1,1.1c0.2,0.1,0.3,0.2,0.5,0.3C49.4-4,49.6-4,49.7-3.9c0.1,0,0.1,0.1,0.2,0.1c0.1,0.1,0.2,0.1,0.3,0.2
		c0.1,0.1,0.2,0.1,0.3,0.2c0.1,0.1,0.2,0.2,0.3,0.2C51-3.1,51.1-3,51.1-2.9c0.1,0.1,0.2,0.2,0.3,0.3c0.2,0.2,0.3,0.4,0.4,0.6
		c-0.4,0.9-0.8,1.9-1.2,2.9c-0.1,0.1-0.1,0.3-0.2,0.4C49.4,1.6,48.3,2.1,47,3c-1.6,1.2-2.9,1.5-4.9,1.2l-0.6-2.8
		C41.1-0.4,42-1.6,42.8-2.7z M47.8-8.8C47.8-8.8,47.8-8.8,47.8-8.8c0.3,0,0.4,0.1,0.5,0.3c0,0.1,0,0.3-0.1,0.3
		c0,0.1-0.1,0.1-0.3,0.2l-5.5,1.2c-0.2,0-0.4-0.1-0.5-0.3c0-0.2,0.1-0.4,0.3-0.5l2.9-0.6L47.8-8.8z M44.6,6.7c-0.1,0-0.2,0-0.2,0
		c-0.5,0.1-1.1,0.2-1.6,0.4l-0.2-0.9c0.3,0,0.6,0,0.8,0c1.7,0,3.1-0.5,4.8-1.7c0.5-0.4,1-0.6,1.4-0.9c-0.1,0.3-0.2,0.5-0.3,0.8
		c-0.1,0.2-0.1,0.4-0.2,0.6c-0.3,0.9-0.6,1.8-0.8,2.7l-0.7-0.4c-0.8-0.5-1.7-0.7-2.7-0.7c0,0,0,0,0,0C44.8,6.7,44.7,6.7,44.6,6.7z
		 M32.6-3.6l0.7-0.5l-0.4-0.7c-0.3-0.5-0.4-1-0.4-1.5c0-1.6,1.3-2.9,2.9-3l1.2-0.1l-0.3-1.2c0-0.2-0.1-0.4-0.1-0.6
		c0-1.3,1-2.4,2.3-2.5l0.9-0.1v-1c0-0.9,0.8-1.6,1.7-1.6c0.5,0,0.9,0.2,1.1,0.4l0.7,0.6l0.7-0.7c0.3-0.3,0.7-0.4,1.2-0.4
		c0.5,0.1,1,0.5,1.2,1c0.1,0.2,0.1,0.4,0,0.5l-0.1,1.1h1.1c1.4,0,2.6,1.1,2.7,2.6l0,0.7l0.6,0.2c1.6,0.5,2.6,2,2.6,3.7
		c0,0.7-0.2,1.4-0.7,2c-0.7-0.6-1.4-1-2-1.3C50.1-6,49.9-6,49.8-6.1c0,0-0.1-0.1-0.1-0.2c0-0.1,0-0.3,0.1-0.4
		c0.4-0.5,0.6-1.2,0.5-1.8l-0.1-0.6c-0.1-0.6-0.5-1-0.9-1.3c-0.5-0.3-1-0.4-1.6-0.3l-0.3,0.1c0,0,0,0,0,0l-2.9,0.6l-2.9,0.6
		c-0.6,0.1-1,0.5-1.3,0.9c-0.3,0.5-0.4,1.1-0.3,1.6L40-6.6c0,0,0,0,0,0s0,0,0,0l0.1,0.3c0.1,0.7,0.6,1.2,1.2,1.5
		c0.2,0.1,0.3,0.2,0.3,0.3c0,0.1,0,0.1,0,0.2c0,0,0,0,0,0c-0.1,0.1-0.2,0.3-0.3,0.4c-0.1,0.1-0.2,0.3-0.3,0.4c0,0.1-0.1,0.1-0.1,0.2
		c-0.1,0.1-0.2,0.2-0.2,0.3c0,0.1-0.1,0.1-0.1,0.2c-0.1,0.1-0.1,0.2-0.2,0.4c0,0.1-0.1,0.1-0.1,0.2c-0.1,0.1-0.1,0.3-0.2,0.4
		c0,0.1-0.1,0.1-0.1,0.2c-0.1,0.2-0.2,0.4-0.2,0.7c0,0,0,0.1,0,0.1c0,0.2-0.1,0.4-0.1,0.6c0,0.1,0,0.2,0,0.3c0,0.1,0,0.2,0,0.4
		c0,0,0,0,0,0c0,0,0,0,0-0.1C39.2,0.2,39,0,38.8-0.2c-0.1-0.1-0.1-0.1-0.2-0.2c-0.1-0.2-0.3-0.3-0.4-0.4c0,0-0.1-0.1-0.1-0.1
		c-0.2-0.2-0.4-0.3-0.6-0.5c-0.1,0-0.1-0.1-0.2-0.1c-0.1-0.1-0.3-0.2-0.4-0.3c-0.1,0-0.1-0.1-0.2-0.1C36.5-2,36.4-2,36.2-2.1
		c0,0-0.1,0-0.1-0.1c-0.2-0.1-0.3-0.1-0.5-0.1c0,0,0,0-0.1,0c0,0-0.1,0-0.1,0c-0.1,0-0.2,0-0.3,0c-0.1,0-0.2,0-0.2,0c0,0,0,0-0.1,0
		c-0.2,0-0.3,0-0.5,0c-0.1,0-0.2,0-0.2,0c-0.2,0-0.4,0.1-0.6,0.1c0,0-0.1,0-0.1,0c-0.5,0.2-1,0.4-1.4,0.7c-0.1-0.2-0.1-0.5-0.1-0.7
		C31.9-2.7,32.1-3.3,32.6-3.6z M26.2,4.7c0.4-0.8,1.5-1.4,3.2-1.9c0.8-0.2,1.6-0.7,2.2-1.3c0.3-0.3,0.6-0.5,0.8-0.7
		c0.8-0.7,1.5-1,2.1-1.1c0,0,0,0,0,0c0.2,0,0.4,0,0.6,0c0,0,0.1,0,0.1,0c0.1,0,0.2,0,0.3,0.1c0.1,0,0.1,0.1,0.2,0.1
		C35.9-0.1,36,0,36.1,0c0.1,0,0.1,0.1,0.2,0.1c0.1,0.1,0.2,0.1,0.2,0.2c0.1,0.1,0.2,0.1,0.2,0.2s0.2,0.1,0.2,0.2
		c0.1,0.1,0.2,0.2,0.3,0.3c0.1,0.1,0.1,0.1,0.2,0.2c0.1,0.1,0.2,0.2,0.3,0.4c0.1,0.1,0.1,0.2,0.2,0.2C38,2,38.1,2.2,38.2,2.4
		c0,0.1,0.1,0.1,0.1,0.2c0.2,0.3,0.3,0.5,0.5,0.8c0.7,1.3,1,3.2,0.7,4.9c-0.1,0-0.1,0-0.2,0c-0.4-0.1-0.7-0.2-1.1-0.4l-0.7-0.4
		c-0.8-0.5-1.7-0.7-2.7-0.7c0,0,0,0,0,0c-0.9,0-1.9,0.2-2.7,0.7l-0.3,0.2c-0.6,0.4-1.3,0.5-2,0.6c-0.7,0-1.4-0.2-2-0.6l-1.3-0.8
		c0,0,0,0,0,0c-0.2-0.1-0.4-0.2-0.6-0.2C25.8,5.8,25.9,5.2,26.2,4.7z M63.1,32.5c-0.1,2-1.7,3.5-3.7,3.5H31.3c-2,0-3.6-1.5-3.7-3.5
		L25.9,8.8l0.9,0.5c0.9,0.6,2,0.8,3.1,0.8c1.1,0,2.1-0.3,3.1-0.8l0.3-0.2c0.5-0.3,1-0.4,1.6-0.4c0.6,0,1.1,0.2,1.6,0.4l0.7,0.4
		c0.9,0.5,1.9,0.8,2.9,0.7c0.1,0,0.2,0,0.3,0c0,0,0,0,0,0c0.7-0.1,1.4-0.3,2-0.6c0.1,0,0.1,0,0.2-0.1l0.7-0.4c0.5-0.3,1-0.4,1.6-0.4
		c0.6,0,1.1,0.2,1.6,0.4l0.7,0.4c0.8,0.5,1.6,0.7,2.4,0.7c0,0,0,0,0.1,0c0.3,0,0.6,0,0.9,0c0.2,0,0.3-0.1,0.5-0.1
		c0.1,0,0.2,0,0.2-0.1c0.4-0.1,0.9-0.3,1.3-0.5l0,0l0.7-0.4c0.5-0.3,1-0.4,1.6-0.4c0.6,0,1.1,0.2,1.6,0.4l0.7,0.4
		c0.8,0.5,1.8,0.7,2.7,0.7c0,0,0,0,0,0c0.9,0,1.8-0.2,2.6-0.7l2-0.9c0,0,0.1-0.1,0.1-0.1l0.2-0.1L63.1,32.5z"/>
	<linearGradient id="SVGID_5_" gradientUnits="userSpaceOnUse" x1="13.4677" y1="-7.1299" x2="48.0927" y2="45.4951">
		<stop  offset="0" style="stop-color:#21A2A8"/>
		<stop  offset="1" style="stop-color:#6BB27E"/>
	</linearGradient>
	<path class="st4" d="M29.9,24.2h7c0.6,0,1-0.4,1-1s-0.4-1-1-1h-7c-0.6,0-1,0.4-1,1S29.4,24.2,29.9,24.2z"/>
	<linearGradient id="SVGID_6_" gradientUnits="userSpaceOnUse" x1="12.3289" y1="-6.3806" x2="46.9539" y2="46.2444">
		<stop  offset="0" style="stop-color:#21A2A8"/>
		<stop  offset="1" style="stop-color:#6BB27E"/>
	</linearGradient>
	<path class="st5" d="M29.9,28.2h9c0.6,0,1-0.4,1-1s-0.4-1-1-1h-9c-0.6,0-1,0.4-1,1S29.4,28.2,29.9,28.2z"/>
	<linearGradient id="SVGID_7_" gradientUnits="userSpaceOnUse" x1="11.1901" y1="-5.6313" x2="45.8151" y2="46.9937">
		<stop  offset="0" style="stop-color:#21A2A8"/>
		<stop  offset="1" style="stop-color:#6BB27E"/>
	</linearGradient>
	<path class="st6" d="M40.9,30.2h-11c-0.6,0-1,0.4-1,1s0.4,1,1,1h11c0.6,0,1-0.4,1-1S41.5,30.2,40.9,30.2z"/>
	<linearGradient id="SVGID_8_" gradientUnits="userSpaceOnUse" x1="18.5179" y1="-10.4526" x2="53.1429" y2="42.1724">
		<stop  offset="0" style="stop-color:#21A2A8"/>
		<stop  offset="1" style="stop-color:#6BB27E"/>
	</linearGradient>
	<path class="st7" d="M46.9,30.2h-2c-0.6,0-1,0.4-1,1s0.4,1,1,1h2c0.6,0,1-0.4,1-1S47.5,30.2,46.9,30.2z"/>
</g>
</svg>
