<?xml version="1.0" encoding="utf-8"?>
<!-- Generator: Adobe Illustrator 19.0.0, SVG Export Plug-In . SVG Version: 6.00 Build 0)  -->
<svg version="1.1" id="Layer_1" xmlns="http://www.w3.org/2000/svg" xmlns:xlink="http://www.w3.org/1999/xlink" x="0px" y="0px"
	 viewBox="222 -221 463 463" style="enable-background:new 222 -221 463 463;" xml:space="preserve">
<style type="text/css">
	.st0{fill:url(#SVGID_1_);}
	.st1{fill:url(#SVGID_2_);}
	.st2{fill:url(#SVGID_3_);}
	.st3{fill:url(#SVGID_4_);}
	.st4{fill:url(#SVGID_5_);}
	.st5{fill:url(#SVGID_6_);}
	.st6{fill:url(#SVGID_7_);}
	.st7{fill:url(#SVGID_8_);}
	.st8{fill:url(#SVGID_9_);}
</style>
<g>
	<linearGradient id="SVGID_1_" gradientUnits="userSpaceOnUse" x1="290.7243" y1="-265.8639" x2="726.8165" y2="438.0459">
		<stop  offset="0" style="stop-color:#21A2A8"/>
		<stop  offset="1" style="stop-color:#6BB27E"/>
	</linearGradient>
	<path class="st0" d="M351.1-103.9h72c3.2,0,6.4-1.6,6.4-6.4c0-4.8-3.2-6.4-6.4-6.4h-72c-4.8,0-6.4,3.2-6.4,6.4
		C344.7-105.5,347.9-103.9,351.1-103.9z"/>
	<linearGradient id="SVGID_2_" gradientUnits="userSpaceOnUse" x1="319.0008" y1="-249.4497" x2="644.3564" y2="275.7167">
		<stop  offset="0" style="stop-color:#21A2A8"/>
		<stop  offset="1" style="stop-color:#6BB27E"/>
	</linearGradient>
	<path class="st1" d="M351.1-47.9h177.6c3.2,0,6.4-1.6,6.4-6.4s-3.2-6.4-6.4-6.4H351.1c-4.8,0-6.4,3.2-6.4,6.4
		C344.7-49.5,347.9-47.9,351.1-47.9z"/>
	<linearGradient id="SVGID_3_" gradientUnits="userSpaceOnUse" x1="288.0707" y1="-243.3718" x2="613.4263" y2="281.7946">
		<stop  offset="0" style="stop-color:#21A2A8"/>
		<stop  offset="1" style="stop-color:#6BB27E"/>
	</linearGradient>
	<path class="st2" d="M351.1,8.1h177.6c3.2,0,6.4-1.6,6.4-6.4s-3.2-6.4-6.4-6.4H351.1c-4.8,0-6.4,3.2-6.4,6.4
		C344.7,6.5,347.9,8.1,351.1,8.1z"/>
	<linearGradient id="SVGID_4_" gradientUnits="userSpaceOnUse" x1="226.3935" y1="-230.9206" x2="551.5029" y2="293.8484">
		<stop  offset="0" style="stop-color:#21A2A8"/>
		<stop  offset="1" style="stop-color:#6BB27E"/>
	</linearGradient>
	<path class="st3" d="M351.1,120.1h177.6c3.2,0,6.4-1.6,6.4-6.4s-3.2-6.4-6.4-6.4H351.1c-4.8,0-6.4,1.6-6.4,6.4
		S347.9,120.1,351.1,120.1z"/>
	<linearGradient id="SVGID_5_" gradientUnits="userSpaceOnUse" x1="378.6541" y1="-223.3698" x2="642.392" y2="202.3376">
		<stop  offset="0" style="stop-color:#21A2A8"/>
		<stop  offset="1" style="stop-color:#6BB27E"/>
	</linearGradient>
	<path class="st4" d="M456.7-103.9c4.8,0,6.4-1.6,6.4-6.4c0-4.8-3.2-6.4-6.4-6.4h-16c-4.8,0-6.4,3.2-6.4,6.4c0,4.8,3.2,6.4,6.4,6.4
		H456.7z"/>
	<linearGradient id="SVGID_6_" gradientUnits="userSpaceOnUse" x1="350.7069" y1="-206.0556" x2="614.4448" y2="219.6517">
		<stop  offset="0" style="stop-color:#21A2A8"/>
		<stop  offset="1" style="stop-color:#6BB27E"/>
	</linearGradient>
	<path class="st5" d="M498.3,52.9c-3.2,0-6.4,1.6-6.4,6.4s3.2,6.4,6.4,6.4h33.6c4.8,0,6.4-1.6,6.4-6.4s-3.2-6.4-6.4-6.4H498.3z"/>
	<linearGradient id="SVGID_7_" gradientUnits="userSpaceOnUse" x1="226.9953" y1="-245.6118" x2="577.2787" y2="319.7913">
		<stop  offset="0" style="stop-color:#21A2A8"/>
		<stop  offset="1" style="stop-color:#6BB27E"/>
	</linearGradient>
	<path class="st6" d="M351.1,52.9c-3.2,0-6.4,1.6-6.4,6.4s3.2,6.4,6.4,6.4h129.6c4.8,0,6.4-1.6,6.4-6.4s-3.2-6.4-6.4-6.4H351.1z"/>
	<linearGradient id="SVGID_8_" gradientUnits="userSpaceOnUse" x1="302.6811" y1="-199.6913" x2="576.7952" y2="242.7647">
		<stop  offset="0" style="stop-color:#21A2A8"/>
		<stop  offset="1" style="stop-color:#6BB27E"/>
	</linearGradient>
	<path class="st7" d="M603.9-143.9l-70.4-65.6c-8-6.4-17.6-11.2-28.8-11.2H331.9c-24,0-43.2,19.2-43.2,43.2v112v94.4v6.4
		c0,4.8,3.2,8,8,8c4.8,0,8-3.2,8-8v-6.4v-94.4v-112c0-14.4,12.8-27.2,27.2-27.2h155.2v67.2v16v17.6c0,4.8,3.2,8,8,8h107.2v294.4
		c0,14.4-12.8,27.2-27.2,27.2H331.9c-14.4,0-27.2-12.8-27.2-27.2v-11.2v-12.8v-88c0-4.8-3.2-8-8-8c-4.8,0-8,3.2-8,8v88v12.8v11.2
		c0,24,19.2,43.2,43.2,43.2h243.2c24,0,43.2-19.2,43.2-43.2v-310.4C618.3-124.7,611.9-135.9,603.9-143.9z M503.1-111.9v-9.6v-16
		v-67.2h1.6c8,0,14.4,3.2,19.2,8l70.4,65.6c4.8,4.8,8,11.2,8,19.2H503.1z"/>
	<linearGradient id="SVGID_9_" gradientUnits="userSpaceOnUse" x1="182.2223" y1="-125.4658" x2="445.9602" y2="300.2416">
		<stop  offset="0" style="stop-color:#21A2A8"/>
		<stop  offset="1" style="stop-color:#6BB27E"/>
	</linearGradient>
	<circle class="st8" cx="296.7" cy="59.3" r="8"/>
</g>
</svg>
