<?xml version="1.0" encoding="utf-8"?>
<!-- Generator: Adobe Illustrator 19.0.0, SVG Export Plug-In . SVG Version: 6.00 Build 0)  -->
<svg version="1.1" id="Capa_1" xmlns="http://www.w3.org/2000/svg" xmlns:xlink="http://www.w3.org/1999/xlink" x="0px" y="0px"
	 viewBox="216 -216.8 452.8 452.8" style="enable-background:new 216 -216.8 452.8 452.8;" xml:space="preserve">
<style type="text/css">
	.st0{fill:url(#SVGID_1_);}
	.st1{fill:url(#SVGID_2_);}
</style>
<g>
	<linearGradient id="SVGID_1_" gradientUnits="userSpaceOnUse" x1="251.68" y1="-159.0436" x2="629.68" y2="238.9564">
		<stop  offset="0" style="stop-color:#21A2A8"/>
		<stop  offset="1" style="stop-color:#6BB27E"/>
	</linearGradient>
	<path class="st0" d="M665.5-26.4L665.5-26.4l-57.8-38.3v-128.1c0-4.1-3.4-7.5-7.5-7.5H284.7c-4.1,0-7.5,3.4-7.5,7.5v128.1
		l-57.8,38.3l0,0c-2,1.3-3.4,3.6-3.4,6.2v232.3c0,4.1,3.4,7.5,7.5,7.5h437.8c4.1,0,7.5-3.4,7.5-7.5V-20.2
		C668.8-22.8,667.5-25.1,665.5-26.4L665.5-26.4z M277.2-0.2l-23.5-12.5h23.5V-0.2z M231-7.7l172.5,91.5L231,198.1V-7.7z M442.4,75.9
		l194,128.6H248.4L442.4,75.9L442.4,75.9z M481.4,83.8L653.8-7.7v205.8L481.4,83.8L481.4,83.8z M607.7-12.7h23.5L607.7-0.2V-12.7z
		 M636.5-27.7h-28.8v-19.1L636.5-27.7z M592.7-185.4V7.8L467.1,74.3l-20.6-13.6c-2.5-1.7-5.8-1.7-8.3,0l-20.6,13.6L292.2,7.7v-193.2
		L592.7-185.4L592.7-185.4z M277.2-27.7h-28.8l28.8-19.1V-27.7z"/>
	<linearGradient id="SVGID_2_" gradientUnits="userSpaceOnUse" x1="308.2614" y1="-212.7817" x2="686.2614" y2="185.2183">
		<stop  offset="0" style="stop-color:#21A2A8"/>
		<stop  offset="1" style="stop-color:#6BB27E"/>
	</linearGradient>
	<path class="st1" d="M442.4-3.2h59.8c4.1,0,7.5-3.4,7.5-7.5s-3.4-7.5-7.5-7.5h-59.8c-28.8,0-52.3-23.4-52.3-52.3v-2.2
		c0-28.8,23.4-52.3,52.3-52.3s52.3,23.4,52.3,52.3v5.5c0,6.2-5.1,11.3-11.3,11.3S472-60.9,472-67.1v-10.5
		c0-17.9-14.5-32.4-32.4-32.4s-32.4,14.5-32.4,32.4c0,17.9,14.5,32.4,32.4,32.4c8.2,0,15.6-3,21.3-8.1c4.6,7.5,12.9,12.5,22.4,12.5
		c14.5,0,26.3-11.8,26.3-26.3v-5.5c0-37.1-30.2-67.3-67.3-67.3s-67.3,30.2-67.3,67.3v2.2C375.2-33.3,405.3-3.2,442.4-3.2L442.4-3.2z
		 M439.6-60.2c-9.6,0-17.4-7.8-17.4-17.4S430.1-95,439.6-95c9.6,0,17.4,7.8,17.4,17.4S449.2-60.2,439.6-60.2z"/>
</g>
</svg>
