<?xml version="1.0" encoding="utf-8"?>
<!-- Generator: Adobe Illustrator 19.0.0, SVG Export Plug-In . SVG Version: 6.00 Build 0)  -->
<svg version="1.1" id="Capa_1" xmlns="http://www.w3.org/2000/svg" xmlns:xlink="http://www.w3.org/1999/xlink" x="0px" y="0px"
	 viewBox="296 -296.4 612.4 612.4" style="enable-background:new 296 -296.4 612.4 612.4;" xml:space="preserve">
<style type="text/css">
	.st0{fill:#FFFFFF;}
</style>
<g>
	<g>
		<g>
			<path class="st0" d="M735.1-57.2c2.1,4.8-0.2,10.5-5,12.5c-4.8,2.1-10.5-0.2-12.5-5c-2.6-6.2-5.9-12.1-9.6-17.7
				c-3.8-5.6-8.2-10.9-12.9-15.6l0,0c-4.8-4.8-10-9.1-15.6-12.9c-5.6-3.8-11.5-7.1-17.6-9.6c-4.8-2-7.1-7.6-5.1-12.5
				c2-4.8,7.6-7.1,12.5-5.1c7.5,3.2,14.5,7,21,11.4c6.7,4.5,12.9,9.6,18.5,15.2l0,0l0,0c5.6,5.6,10.8,11.8,15.2,18.4
				C728.1-71.6,732-64.6,735.1-57.2z"/>
			<path class="st0" d="M795.9-55.9c1.4,5.1-1.7,10.3-6.8,11.7s-10.3-1.7-11.7-6.8c-3.7-13.7-9.2-26.7-16.2-38.9
				c-7-12.1-15.7-23.4-25.8-33.6c-10.1-10.1-21.4-18.8-33.5-25.9c-12.1-7-25.2-12.5-38.9-16.2c-5.1-1.4-8.1-6.6-6.8-11.7
				c1.4-5.1,6.6-8.1,11.7-6.8c15.3,4.1,29.9,10.3,43.5,18.1c13.7,8,26.4,17.7,37.5,28.8c11.2,11.2,20.9,23.8,28.8,37.5
				C785.6-85.8,791.8-71.2,795.9-55.9z"/>
			<path class="st0" d="M854.7-55.3c1,5.2-2.4,10.2-7.6,11.2c-5.2,1-10.2-2.4-11.2-7.6c-4.2-21.2-11.5-41.5-21.7-60.4l-0.3-0.5
				c-10.1-18.7-22.9-36-38.2-51.3l0,0c-15.4-15.4-32.9-28.4-51.8-38.5c-18.8-10.1-39.2-17.4-60.4-21.7c-5.2-1-8.6-6-7.6-11.2
				c1-5.2,6-8.6,11.2-7.6c23,4.6,45.1,12.6,65.7,23.6c20.6,11,39.6,25.1,56.3,41.8l0,0c16.5,16.5,30.5,35.3,41.5,55.7l0.3,0.5
				C842.1-100.4,850.1-78.3,854.7-55.3z"/>
			<path class="st0" d="M904.3,204.2c4.2,3.1,5.2,9.1,2.1,13.3c-3.1,4.2-9.1,5.2-13.3,2.1L743.8,110.2l-9.7,9.7l-15.4,15.5
				c-36.8,36.8-91.9,28.1-142.7-2.8c-19-11.6-37.5-26.3-54-42.8c-16.5-16.5-31.2-34.9-42.8-54c-30.9-50.8-39.7-105.9-3.2-142.4
				l25.4-25.4L398.8-272.3l-46.4,46l0,0l-0.4,0.4c-36.4,36.4-46,84.7-27.3,143.3c19.4,60.9,68.7,132.7,149.2,213.8l3.2,3.3l0,0
				c5.5,5.5,10,10,13.6,13.4c78.2,75.8,147.7,122.3,206.7,140.3c56.8,17.4,103.7,8,138.9-27.2l0.5-0.5l1.1-1.1l12.3-12.7
				c3.7-3.8,9.7-3.8,13.5-0.2c3.8,3.7,3.8,9.7,0.2,13.5l-12.3,12.7l0,0l-1.2,1.2l-0.5,0.6c-40.5,40.5-93.9,51.6-157.9,31.9
				c-61.9-18.9-134-66.9-214.5-144.9c-5.5-5.4-10.1-9.9-13.8-13.5l0,0l0,0l-3.3-3.3C377.7,61.5,326.8-13,306.5-76.7
				c-21-66-9.8-120.8,32-162.6l0.4-0.4l0,0l0,0l54.3-53.9c0.3-0.3,0.7-0.6,1.1-0.9c4.2-3.1,10.2-2.2,13.3,2.1l113.7,155.2
				c3.2,3.7,3.1,9.4-0.5,13l-31.2,31.2c-29.1,29.1-20.6,75.4,6,118.9c10.7,17.6,24.5,34.8,40,50.4c15.5,15.5,32.8,29.3,50.4,40
				c43.5,26.5,89.9,34.9,119.2,5.6l15.5-15.4l15.4-15.4l0,0c3.3-3.3,8.5-3.8,12.4-1L904.3,204.2z"/>
			<path class="st0" d="M862.7,245.8c4.2,3.1,5.2,9.1,2.1,13.3c-3.1,4.2-9.1,5.2-13.3,2.1l-39-28.5l-39-28.5l-39-28.5
				c-4.2-3.1-5.2-9.1-2.1-13.3c3.1-4.2,9.1-5.2,13.3-2.1l39,28.5l39,28.5L862.7,245.8z"/>
			<path class="st0" d="M350.6-239.6c-3.1-4.2-2.2-10.2,2.1-13.3c4.2-3.1,10.2-2.2,13.3,2.1l28.5,39l28.5,38.9l28.5,39
				c3.1,4.2,2.2,10.2-2.1,13.3s-10.2,2.2-13.3-2.1l-28.5-39l-28.5-38.9L350.6-239.6z"/>
		</g>
	</g>
</g>
</svg>
