<?xml version="1.0" encoding="utf-8"?>
<!-- Generator: Adobe Illustrator 19.0.0, SVG Export Plug-In . SVG Version: 6.00 Build 0)  -->
<svg version="1.1" id="Capa_1" xmlns="http://www.w3.org/2000/svg" xmlns:xlink="http://www.w3.org/1999/xlink" x="0px" y="0px"
	 viewBox="17 -17.8 54.8 54.8" style="enable-background:new 17 -17.8 54.8 54.8;" xml:space="preserve">
<style type="text/css">
	.st0{fill:#FFFFFF;}
</style>
<g>
	<path class="st0" d="M44.6-5.8c-3.9,0-7,3.1-7,7s3.1,7,7,7s7-3.1,7-7S48.4-5.8,44.6-5.8z M44.6,6.2c-2.8,0-5-2.2-5-5s2.2-5,5-5
		s5,2.2,5,5S47.3,6.2,44.6,6.2z"/>
	<path class="st0" d="M57.9-12.1c-3.6-3.6-8.4-5.6-13.6-5.6c-5.1,0-9.9,2-13.6,5.6c-6.7,6.7-7.5,19.3-1.8,27L44.4,37l15.3-22.2
		C65.5,7.2,64.6-5.4,57.9-12.1z M58.1,13.7L44.4,33.5L30.6,13.6c-5.2-6.9-4.5-18.3,1.6-24.4c3.2-3.2,7.6-5,12.1-5s8.9,1.8,12.1,5
		C62.6-4.7,63.3,6.7,58.1,13.7z"/>
</g>
</svg>
