<?xml version="1.0" encoding="utf-8"?>
<!-- Generator: Adobe Illustrator 19.0.0, SVG Export Plug-In . SVG Version: 6.00 Build 0)  -->
<svg version="1.1" id="Capa_1" xmlns="http://www.w3.org/2000/svg" xmlns:xlink="http://www.w3.org/1999/xlink" x="0px" y="0px"
	 viewBox="246 -246 512 512" style="enable-background:new 246 -246 512 512;" xml:space="preserve">
<style type="text/css">
	.st0{fill:#FFFFFF;}
</style>
<g>
	<g>
		<path class="st0" d="M305.7-109.5h34.1v34.1h17.1v-34.1h34.1c23.9,0,42.7,18.8,42.7,42.7v34.1h17.1v-34.1
			c0-33.3-26.5-59.7-59.7-59.7h-85.3c-33.3,0-59.7,26.5-59.7,59.7V52.7h17.1V10h25.6v42.7h17.1v-93.9h-17.1v34.1h-25.6v-59.7
			C263.1-90.7,281.8-109.5,305.7-109.5z"/>
		<path class="st0" d="M339.9-135.1h17.1c23.9,0,42.7-18.8,42.7-42.7v-25.6c0-23.9-18.8-42.7-42.7-42.7h-17.1
			c-23.9,0-42.7,18.8-42.7,42.7v25.6C297.2-153.8,316-135.1,339.9-135.1z M356.9-152.1h-17.1c-14.5,0-25.6-11.1-25.6-25.6v-17.1
			h68.3v17.1C382.5-163.2,371.4-152.1,356.9-152.1z M339.9-228.9h17.1c11.1,0,20.5,6.8,23.9,17.1h-65.7
			C319.4-222.1,328.8-228.9,339.9-228.9z"/>
		<rect x="391.1" y="-41.2" class="st0" width="17.1" height="93.9"/>
		<rect x="322.8" y="-32.7" class="st0" width="51.2" height="17.1"/>
		<rect x="322.8" y="1.5" class="st0" width="51.2" height="17.1"/>
		<path class="st0" d="M544.7,86.8h-85.3c-33.3,0-59.7,26.5-59.7,59.7V266h17.1v-42.7h25.6V266h17.1v-93.9h-17.1v34.1h-25.6v-59.7
			c0-23.9,18.8-42.7,42.7-42.7h34.1V138h17.1v-34.1h34.1c23.9,0,42.7,18.8,42.7,42.7v59.7h-25.6v-34.1h-17.1V266h17.1v-42.7h25.6
			V266h17.1V146.5C604.4,113.3,577.9,86.8,544.7,86.8z"/>
		<path class="st0" d="M450.8,35.6c0,23.9,18.8,42.7,42.7,42.7h17.1c23.9,0,42.7-18.8,42.7-42.7V10c0-23.9-18.8-42.7-42.7-42.7
			h-17.1c-23.9,0-42.7,18.8-42.7,42.7V35.6z M510.5,61.2h-17.1c-14.5,0-25.6-11.1-25.6-25.6V18.5h68.3v17.1
			C536.1,50.1,525,61.2,510.5,61.2z M493.5-15.6h17.1c11.1,0,20.5,6.8,23.9,17.1h-65.7C473-8.8,482.4-15.6,493.5-15.6z"/>
		<rect x="476.4" y="180.7" class="st0" width="51.2" height="17.1"/>
		<rect x="476.4" y="214.8" class="st0" width="51.2" height="17.1"/>
		<path class="st0" d="M698.3-126.5h-85.3c-33.3,0-59.7,26.5-59.7,59.7v34.1h17.1v-34.1c0-23.9,18.8-42.7,42.7-42.7h34.1v34.1h17.1
			v-34.1h34.1c23.9,0,42.7,18.8,42.7,42.7v59.7h-25.6v-34.1h-17.1v93.9h17.1V10h25.6v42.7H758V-66.8
			C758-100.1,731.5-126.5,698.3-126.5z"/>
		<path class="st0" d="M647.1-135.1h17.1c23.9,0,42.7-18.8,42.7-42.7v-25.6c0-23.9-18.8-42.7-42.7-42.7h-17.1
			c-23.9,0-42.7,18.8-42.7,42.7v25.6C604.4-153.8,623.2-135.1,647.1-135.1z M664.1-152.1h-17.1c-14.5,0-25.6-11.1-25.6-25.6v-17.1
			h68.3v17.1C689.7-163.2,678.6-152.1,664.1-152.1z M647.1-228.9h17.1c11.1,0,20.5,6.8,23.9,17.1h-65.7
			C626.6-222.1,636-228.9,647.1-228.9z"/>
		<rect x="595.9" y="-41.2" class="st0" width="17.1" height="93.9"/>
		<rect x="630" y="-32.7" class="st0" width="51.2" height="17.1"/>
		<rect x="630" y="1.5" class="st0" width="51.2" height="17.1"/>
	</g>
</g>
</svg>
