<?xml version="1.0" encoding="utf-8"?>
<!-- Generator: Adobe Illustrator 19.0.0, SVG Export Plug-In . SVG Version: 6.00 Build 0)  -->
<svg version="1.1" id="Capa_2" xmlns="http://www.w3.org/2000/svg" xmlns:xlink="http://www.w3.org/1999/xlink" x="0px" y="0px"
	 viewBox="0 0 442.8 80.7" style="enable-background:new 0 0 442.8 80.7;" xml:space="preserve">
<style type="text/css">
	.st0{fill:url(#XMLID_38_);}
	.st1{fill:url(#XMLID_39_);}
	.st2{fill:url(#SVGID_1_);}
	.st3{fill:url(#SVGID_2_);}
	.st4{fill:url(#XMLID_40_);}
	.st5{fill:url(#XMLID_41_);}
	.st6{fill:url(#XMLID_42_);}
	.st7{fill:url(#XMLID_43_);}
	.st8{fill:url(#XMLID_44_);}
	.st9{fill:url(#XMLID_45_);}
	.st10{fill:url(#XMLID_46_);}
	.st11{fill:url(#XMLID_47_);}
	.st12{fill:url(#XMLID_48_);}
	.st13{fill:url(#XMLID_49_);}
	.st14{fill:url(#XMLID_50_);}
	.st15{fill:url(#XMLID_51_);}
	.st16{fill:url(#XMLID_52_);}
	.st17{fill:url(#XMLID_53_);}
	.st18{fill:url(#SVGID_3_);}
	.st19{fill:url(#XMLID_54_);}
	.st20{fill:url(#XMLID_55_);}
	.st21{fill:url(#XMLID_56_);}
	.st22{fill:url(#SVGID_4_);}
	.st23{fill:#6DB983;}
	.st24{fill:#CC0937;}
	.st25{fill:#21A2A8;}
</style>
<g>
	<g>
		<g id="XMLID_35_">
			
				<linearGradient id="XMLID_38_" gradientUnits="userSpaceOnUse" x1="97.7311" y1="406.7634" x2="14.0069" y2="465.8355" gradientTransform="matrix(1 0 0 -1 0 466.0667)">
				<stop  offset="0" style="stop-color:#6BB27E"/>
				<stop  offset="1" style="stop-color:#21A2A8"/>
			</linearGradient>
			<path id="XMLID_36_" class="st0" d="M49.4,21.8H29.3c-0.8,0-1.4-0.6-1.4-1.4V1.7c0-0.8,0.6-1.4,1.4-1.4s1.4,0.6,1.4,1.4V19h18.7
				c0.8,0,1.4,0.6,1.4,1.4S50,21.8,49.4,21.8z"/>
		</g>
		<g id="XMLID_33_">
			
				<linearGradient id="XMLID_39_" gradientUnits="userSpaceOnUse" x1="107.5246" y1="420.6435" x2="23.8003" y2="479.7157" gradientTransform="matrix(1 0 0 -1 0 466.0667)">
				<stop  offset="0" style="stop-color:#6BB27E"/>
				<stop  offset="1" style="stop-color:#21A2A8"/>
			</linearGradient>
			<path id="XMLID_34_" class="st1" d="M69.2,21.8H49.1c-0.8,0-1.4-0.6-1.4-1.4s0.6-1.4,1.4-1.4h18.7V2.2c0-0.8,0.6-1.4,1.4-1.4
				c0.8,0,1.4,0.6,1.4,1.4v18.1C70.6,21.2,70,21.8,69.2,21.8z"/>
		</g>
		
			<linearGradient id="SVGID_1_" gradientUnits="userSpaceOnUse" x1="98.798" y1="408.2759" x2="15.0738" y2="467.3478" gradientTransform="matrix(1 0 0 -1 0 466.0667)">
			<stop  offset="0" style="stop-color:#6BB27E"/>
			<stop  offset="1" style="stop-color:#21A2A8"/>
		</linearGradient>
		<path class="st2" d="M84.3,34.9h-8.9v2h7.8v5.6l-10,3.6l-10-3.6v-5.6h3.3v-2h-4.2c-0.6,0-1.1,0.6-1.1,1.1v7.5
			c0,0.6,0.3,0.8,0.6,0.8l11.2,4.2h0.3h0.3l11.2-4.2c0.3-0.3,0.6-0.6,0.6-0.8V36C85.4,35.4,84.8,34.9,84.3,34.9z"/>
		
			<linearGradient id="SVGID_2_" gradientUnits="userSpaceOnUse" x1="98.49" y1="407.839" x2="14.7657" y2="466.9109" gradientTransform="matrix(1 0 0 -1 0 466.0667)">
			<stop  offset="0" style="stop-color:#6BB27E"/>
			<stop  offset="1" style="stop-color:#21A2A8"/>
		</linearGradient>
		<path class="st3" d="M95.7,48.8v24.3c0,2.5-2.2,4.7-4.7,4.7H55.3c-2.5,0-4.7-2.2-4.7-4.7V19c0-1.4,0.6-2.5,1.4-3.3L64.2,4.2
			c0.8-0.8,2-1.4,3.3-1.4H91c2.5,0,4.7,2.2,4.7,4.7v15.6h2.8V7.5C98.5,3.3,95.2,0,91,0H67.5c-2,0-3.6,0.8-5,2L50.2,13.4
			c-1.4,1.4-2.5,3.3-2.5,5.6v54.1c0,4.2,3.3,7.5,7.5,7.5H91c4.2,0,7.5-3.3,7.5-7.5V48.8H95.7z"/>
		<g id="XMLID_31_">
			
				<linearGradient id="XMLID_40_" gradientUnits="userSpaceOnUse" x1="97.013" y1="414.4909" x2="23.7519" y2="466.1808" gradientTransform="matrix(1 0 0 -1 0 466.0667)">
				<stop  offset="0" style="stop-color:#6BB27E"/>
				<stop  offset="1" style="stop-color:#21A2A8"/>
			</linearGradient>
			<path id="XMLID_32_" class="st4" d="M75.6,36.8h-1.7c-0.5,0-1-0.2-1-1c0-0.5,0.2-1,1-1h1.7c0.5,0,1,0.2,1,1
				C76.3,36.4,76.1,36.8,75.6,36.8z"/>
		</g>
		<g id="XMLID_29_">
			
				<linearGradient id="XMLID_41_" gradientUnits="userSpaceOnUse" x1="94.578" y1="411.04" x2="21.3169" y2="462.7298" gradientTransform="matrix(1 0 0 -1 0 466.0667)">
				<stop  offset="0" style="stop-color:#6BB27E"/>
				<stop  offset="1" style="stop-color:#21A2A8"/>
			</linearGradient>
			<path id="XMLID_30_" class="st5" d="M68.3,36.8h-1.7c-0.5,0-1-0.2-1-1c0-0.5,0.2-1,1-1h1.7c0.5,0,1,0.2,1,1
				C69.2,36.4,68.8,36.8,68.3,36.8z"/>
		</g>
		<g id="XMLID_27_">
			
				<linearGradient id="XMLID_42_" gradientUnits="userSpaceOnUse" x1="88.7051" y1="393.9705" x2="4.9808" y2="453.0426" gradientTransform="matrix(1 0 0 -1 0 466.0667)">
				<stop  offset="0" style="stop-color:#6BB27E"/>
				<stop  offset="1" style="stop-color:#21A2A8"/>
			</linearGradient>
			<path id="XMLID_28_" class="st6" d="M16.7,20.4h-5.9c-0.6,0-1.1-0.3-1.1-1.1c0-0.6,0.3-1.1,1.1-1.1h5.9c0.6,0,1.1,0.3,1.1,1.1
				C17.9,20.1,17.3,20.4,16.7,20.4z"/>
		</g>
		<g id="XMLID_25_">
			
				<linearGradient id="XMLID_43_" gradientUnits="userSpaceOnUse" x1="87.1649" y1="391.7873" x2="3.4406" y2="450.8594" gradientTransform="matrix(1 0 0 -1 0 466.0667)">
				<stop  offset="0" style="stop-color:#6BB27E"/>
				<stop  offset="1" style="stop-color:#21A2A8"/>
			</linearGradient>
			<path id="XMLID_26_" class="st7" d="M35.2,30.1H10.9c-0.6,0-1.1-0.3-1.1-1.1c0-0.6,0.3-1.1,1.1-1.1h24.3c0.6,0,1.1,0.3,1.1,1.1
				C36.3,29.9,35.7,30.1,35.2,30.1z"/>
		</g>
		<g id="XMLID_23_">
			
				<linearGradient id="XMLID_44_" gradientUnits="userSpaceOnUse" x1="82.5636" y1="385.2659" x2="-1.1607" y2="444.3381" gradientTransform="matrix(1 0 0 -1 0 466.0667)">
				<stop  offset="0" style="stop-color:#6BB27E"/>
				<stop  offset="1" style="stop-color:#21A2A8"/>
			</linearGradient>
			<path id="XMLID_24_" class="st8" d="M35.2,39.9H10.9c-0.6,0-1.1-0.3-1.1-1.1c0-0.6,0.3-1.1,1.1-1.1h24.3c0.6,0,1.1,0.3,1.1,1.1
				C36.3,39.6,35.7,39.9,35.2,39.9z"/>
		</g>
		<g id="XMLID_21_">
			
				<linearGradient id="XMLID_45_" gradientUnits="userSpaceOnUse" x1="73.3611" y1="372.2233" x2="-10.3632" y2="431.2952" gradientTransform="matrix(1 0 0 -1 0 466.0667)">
				<stop  offset="0" style="stop-color:#6BB27E"/>
				<stop  offset="1" style="stop-color:#21A2A8"/>
			</linearGradient>
			<path id="XMLID_22_" class="st9" d="M35.2,59.4H10.9c-0.6,0-1.1-0.3-1.1-1.1s0.3-1.1,1.1-1.1h24.3c0.6,0,1.1,0.3,1.1,1.1
				S35.7,59.4,35.2,59.4z"/>
		</g>
		<g id="XMLID_19_">
			
				<linearGradient id="XMLID_46_" gradientUnits="userSpaceOnUse" x1="91.163" y1="397.4545" x2="7.4388" y2="456.5264" gradientTransform="matrix(1 0 0 -1 0 466.0667)">
				<stop  offset="0" style="stop-color:#6BB27E"/>
				<stop  offset="1" style="stop-color:#21A2A8"/>
			</linearGradient>
			<path id="XMLID_20_" class="st10" d="M22.6,20.4h-2.8c-0.6,0-1.1-0.3-1.1-1.1c0-0.6,0.3-1.1,1.1-1.1h2.8c0.6,0,1.1,0.3,1.1,1.1
				S23.4,20.4,22.6,20.4z"/>
		</g>
		<g id="XMLID_17_">
			
				<linearGradient id="XMLID_47_" gradientUnits="userSpaceOnUse" x1="81.0772" y1="383.1595" x2="-2.647" y2="442.2317" gradientTransform="matrix(1 0 0 -1 0 466.0667)">
				<stop  offset="0" style="stop-color:#6BB27E"/>
				<stop  offset="1" style="stop-color:#21A2A8"/>
			</linearGradient>
			<path id="XMLID_18_" class="st11" d="M29.9,47.7h5.9c0.6,0,1.1,0.3,1.1,1.1S36.6,50,35.7,50h-5.9c-0.6,0-1.1-0.3-1.1-1.1
				S29.3,47.7,29.9,47.7z"/>
		</g>
		<g id="XMLID_15_">
			
				<linearGradient id="XMLID_48_" gradientUnits="userSpaceOnUse" x1="76.4395" y1="376.5864" x2="-7.2847" y2="435.6586" gradientTransform="matrix(1 0 0 -1 0 466.0667)">
				<stop  offset="0" style="stop-color:#6BB27E"/>
				<stop  offset="1" style="stop-color:#21A2A8"/>
			</linearGradient>
			<path id="XMLID_16_" class="st12" d="M10.9,47.7h15.9c0.6,0,1.1,0.3,1.1,1.1S27.6,50,26.8,50H10.9c-0.6,0-1.1-0.3-1.1-1.1
				S10.3,47.7,10.9,47.7z"/>
		</g>
		
			<linearGradient id="XMLID_49_" gradientUnits="userSpaceOnUse" x1="95.7549" y1="412.708" x2="22.4938" y2="464.3978" gradientTransform="matrix(1 0 0 -1 0 466.0667)">
			<stop  offset="0" style="stop-color:#6BB27E"/>
			<stop  offset="1" style="stop-color:#21A2A8"/>
		</linearGradient>
		<circle id="XMLID_14_" class="st13" cx="71" cy="35.9" r="1"/>
		<g id="XMLID_12_">
			
				<linearGradient id="XMLID_50_" gradientUnits="userSpaceOnUse" x1="95.4306" y1="403.5028" x2="11.7063" y2="462.5747" gradientTransform="matrix(1 0 0 -1 0 466.0667)">
				<stop  offset="0" style="stop-color:#6BB27E"/>
				<stop  offset="1" style="stop-color:#21A2A8"/>
			</linearGradient>
			<path id="XMLID_13_" class="st14" d="M27.9,17.3v-2.8c0-0.8,0.6-1.4,1.4-1.4s1.4,0.6,1.4,1.4v2.8c0,0.8-0.6,1.4-1.4,1.4
				S27.9,18.1,27.9,17.3z"/>
		</g>
		
			<linearGradient id="XMLID_51_" gradientUnits="userSpaceOnUse" x1="108.5046" y1="422.0328" x2="24.7804" y2="481.1047" gradientTransform="matrix(1 0 0 -1 0 466.0667)">
			<stop  offset="0" style="stop-color:#6BB27E"/>
			<stop  offset="1" style="stop-color:#21A2A8"/>
		</linearGradient>
		<circle id="XMLID_11_" class="st15" cx="97.1" cy="36" r="1.4"/>
		<g id="XMLID_9_">
			
				<linearGradient id="XMLID_52_" gradientUnits="userSpaceOnUse" x1="114.552" y1="430.6037" x2="30.8278" y2="489.6759" gradientTransform="matrix(1 0 0 -1 0 466.0667)">
				<stop  offset="0" style="stop-color:#6BB27E"/>
				<stop  offset="1" style="stop-color:#21A2A8"/>
			</linearGradient>
			<path id="XMLID_10_" class="st16" d="M95.7,31.8V14.5c0-0.8,0.6-1.4,1.4-1.4c0.8,0,1.4,0.6,1.4,1.4v17.3c0,0.8-0.6,1.4-1.4,1.4
				C96.3,33.2,95.7,32.7,95.7,31.8z"/>
		</g>
		<g id="XMLID_7_">
			
				<linearGradient id="XMLID_53_" gradientUnits="userSpaceOnUse" x1="102.0629" y1="412.9028" x2="18.3387" y2="471.975" gradientTransform="matrix(1 0 0 -1 0 466.0667)">
				<stop  offset="0" style="stop-color:#6BB27E"/>
				<stop  offset="1" style="stop-color:#21A2A8"/>
			</linearGradient>
			<path id="XMLID_8_" class="st17" d="M95.7,58.3V41c0-0.8,0.6-1.4,1.4-1.4c0.8,0,1.4,0.6,1.4,1.4v17.3c0,0.8-0.6,1.4-1.4,1.4
				C96.3,59.7,95.7,59.2,95.7,58.3z"/>
		</g>
		
			<linearGradient id="SVGID_3_" gradientUnits="userSpaceOnUse" x1="80.5683" y1="382.438" x2="-3.156" y2="441.5102" gradientTransform="matrix(1 0 0 -1 0 466.0667)">
			<stop  offset="0" style="stop-color:#6BB27E"/>
			<stop  offset="1" style="stop-color:#21A2A8"/>
		</linearGradient>
		<path class="st18" d="M48.3,13.4L36,2c-1.4-1.1-3.1-2-5-2H7.5C3.3,0,0,3.3,0,7.5v36h2.8v-36C2.8,5,5,2.8,7.5,2.8H31
			c1.4,0,2.5,0.6,3.3,1.4l12.3,11.4c0.8,0.8,1.4,2,1.4,3.3v54.1c0,2.5-2.2,4.7-4.7,4.7H7.5c-2.5,0-4.7-2.2-4.7-4.7v-4.2H0v4.2
			c0,4.2,3.3,7.5,7.5,7.5h35.7c4.2,0,7.5-3.3,7.5-7.5V19C50.8,16.7,49.7,14.8,48.3,13.4z"/>
		
			<linearGradient id="XMLID_54_" gradientUnits="userSpaceOnUse" x1="70.4562" y1="368.5014" x2="-13.2681" y2="427.5733" gradientTransform="matrix(1 0 0 -1 0 466.0667)">
			<stop  offset="0" style="stop-color:#6BB27E"/>
			<stop  offset="1" style="stop-color:#21A2A8"/>
		</linearGradient>
		<circle id="XMLID_6_" class="st19" cx="1.4" cy="48.8" r="1.4"/>
		<g id="XMLID_4_">
			
				<linearGradient id="XMLID_55_" gradientUnits="userSpaceOnUse" x1="76.5691" y1="377.1653" x2="-7.1551" y2="436.2376" gradientTransform="matrix(1 0 0 -1 0 466.0667)">
				<stop  offset="0" style="stop-color:#6BB27E"/>
				<stop  offset="1" style="stop-color:#21A2A8"/>
			</linearGradient>
			<path id="XMLID_5_" class="st20" d="M0,44.7V27.1c0-0.8,0.6-1.4,1.4-1.4s1.4,0.6,1.4,1.4v17.6c0,0.8-0.6,1.4-1.4,1.4
				S0,45.5,0,44.7z"/>
		</g>
		<g id="XMLID_2_">
			
				<linearGradient id="XMLID_56_" gradientUnits="userSpaceOnUse" x1="64.0802" y1="359.4643" x2="-19.6441" y2="418.5366" gradientTransform="matrix(1 0 0 -1 0 466.0667)">
				<stop  offset="0" style="stop-color:#6BB27E"/>
				<stop  offset="1" style="stop-color:#21A2A8"/>
			</linearGradient>
			<path id="XMLID_3_" class="st21" d="M0,71.2V53.6c0-0.8,0.6-1.4,1.4-1.4s1.4,0.6,1.4,1.4v17.6c0,0.8-0.6,1.4-1.4,1.4S0,72,0,71.2
				z"/>
		</g>
		<g id="XMLID_1_">
			
				<linearGradient id="SVGID_4_" gradientUnits="userSpaceOnUse" x1="108.6274" y1="422.2069" x2="24.9032" y2="481.2791" gradientTransform="matrix(1 0 0 -1 0 466.0667)">
				<stop  offset="0" style="stop-color:#6BB27E"/>
				<stop  offset="1" style="stop-color:#21A2A8"/>
			</linearGradient>
			<path class="st22" d="M49.7,5c-11.4,0-17-2-17.3-2c-0.8-0.3-1.1-1.1-0.8-1.7c0.3-0.8,1.1-1.1,1.7-0.8c0,0,5.6,2,16.5,2
				c10,0,15.6-1.7,15.6-1.7c0.8-0.3,1.4,0.3,1.7,0.8c0.3,0.8-0.3,1.4-0.8,1.4C65.9,3.1,60.3,5,49.7,5z"/>
		</g>
	</g>
	<g>
		<path class="st23" d="M118,63V23.3h10l9.9,19.6l2.8,6.4l-0.2-26h9V63h-10l-9.9-19.6l-2.8-6.4h-0.6l0.8,4.9V63H118z"/>
		<path class="st23" d="M173.2,33.7h8.8V63h-6.9l-0.6-3c-1.1,1.1-2.4,2.1-3.9,2.8c-1.5,0.7-3.2,1.1-5,1.1c-1.9,0-3.5-0.3-4.7-0.9
			s-2.2-1.4-2.8-2.5c-0.7-1.1-1.2-2.5-1.4-4.2c-0.3-1.7-0.4-3.7-0.4-6V33.7h8.8v17.4c0,1,0,1.9,0.1,2.7c0.1,0.8,0.2,1.4,0.5,1.9
			c0.2,0.5,0.6,0.9,1,1.1c0.4,0.2,1,0.4,1.7,0.4c1,0,1.9-0.2,2.7-0.5c0.8-0.4,1.6-0.8,2.2-1.2V33.7z"/>
		<path class="st23" d="M203.3,40.3h-5.4V53c0,0.5,0,1.1,0.1,1.6c0.1,0.5,0.2,0.9,0.4,1.3c0.2,0.4,0.4,0.7,0.7,0.9
			c0.3,0.2,0.7,0.3,1.2,0.3c0.7,0,1.3,0,1.7-0.1c0.4-0.1,0.8-0.2,1.2-0.4l1.1,5.9c-1.1,0.4-2.2,0.8-3.3,1.1
			c-1.1,0.3-2.3,0.4-3.5,0.4c-1.6,0-2.9-0.2-4-0.6c-1.1-0.4-2-1.1-2.6-1.9c-0.7-0.8-1.1-1.9-1.4-3.1c-0.3-1.2-0.4-2.7-0.4-4.3V40.3
			h-2.9v-6.7h2.9l1.3-6.9l7.4-0.6v7.5h5.4V40.3z"/>
		<path class="st23" d="M208.7,63V33.7h6.4l0.6,5c0.2-0.8,0.6-1.5,1.1-2.2c0.5-0.7,1.1-1.2,1.8-1.7c0.7-0.5,1.4-0.8,2.2-1.1
			c0.8-0.3,1.6-0.4,2.3-0.4c0.7,0,1.4,0,2,0.1c0.6,0.1,1.2,0.2,1.6,0.3c0.5,0.1,0.9,0.3,1.2,0.4c0.3,0.1,0.5,0.2,0.7,0.3l-1.3,6.3
			c-1-0.3-2-0.5-3.1-0.5c-1,0-2,0.2-2.9,0.6c-0.9,0.4-1.7,1-2.4,1.8c-0.7,0.8-1.2,1.9-1.5,3.2V63H208.7z"/>
		<polygon class="st23" points="233.1,63 233.1,40.6 230.2,40.2 230.2,33.7 241.9,33.7 241.9,63 		"/>
		<path class="st24" d="M231.2,26.2c0-1.7,0.5-2.9,1.4-3.6c0.9-0.7,2.3-1,4-1c0.9,0,1.6,0.1,2.3,0.2c0.7,0.2,1.3,0.4,1.7,0.8
			c0.5,0.4,0.8,0.8,1.1,1.4c0.3,0.6,0.4,1.3,0.4,2.1c0,1.6-0.5,2.7-1.4,3.4c-1,0.6-2.3,1-4.1,1c-1.7,0-3-0.3-4-1
			C231.7,29,231.2,27.8,231.2,26.2z"/>
		<path class="st25" d="M258,51v12h-9.1V23.3h12.7c2.5,0,4.7,0.3,6.7,0.8c2,0.5,3.7,1.3,5.1,2.4c1.4,1.1,2.5,2.5,3.2,4.2
			c0.7,1.7,1.1,3.7,1.1,6c0,4.8-1.3,8.4-3.9,10.7c-2.6,2.4-6.5,3.5-11.8,3.5H258z M258,43.7h3.9c2.1,0,3.6-0.5,4.7-1.6
			c1.1-1.1,1.6-2.8,1.6-5.1c0-1.1-0.1-2.1-0.4-2.9c-0.3-0.8-0.7-1.5-1.2-2c-0.5-0.5-1.2-0.9-2-1.1c-0.8-0.2-1.6-0.3-2.6-0.3h-4V43.7
			z"/>
		<path class="st25" d="M288.3,63.5c-1.2-0.3-2.3-0.8-3.2-1.5c-0.9-0.7-1.7-1.6-2.2-2.7c-0.6-1.1-0.8-2.4-0.8-3.8V22.6l8.8-1v32.2
			c0,0.7,0.1,1.3,0.3,1.8c0.2,0.5,0.4,1,0.8,1.4c0.3,0.4,0.7,0.7,1.1,1c0.4,0.3,0.8,0.5,1.1,0.6l-1.9,4.7
			C290.8,63.8,289.5,63.7,288.3,63.5z"/>
		<path class="st25" d="M322.6,54.1c0,1.3,0.2,2.3,0.7,3.1c0.4,0.8,0.9,1.3,1.5,1.6l-1.5,4.7c-0.7,0.1-1.4,0.1-2.2,0
			c-0.8-0.1-1.6-0.2-2.3-0.5c-0.7-0.3-1.4-0.6-2-1.1c-0.6-0.5-1.1-1.1-1.4-1.8c-0.5,0.5-1,1-1.5,1.4c-0.5,0.4-1.1,0.8-1.7,1.2
			c-0.6,0.3-1.4,0.6-2.2,0.8c-0.8,0.2-1.8,0.3-2.9,0.3c-3.2,0-5.6-0.8-7.3-2.4c-1.7-1.6-2.5-4-2.5-7.1c0-3,1-5.3,3.1-6.8
			c2.1-1.5,5.2-2.3,9.5-2.5l4.2-0.2v-1.5c0-0.4-0.1-0.8-0.2-1.2c-0.1-0.4-0.3-0.8-0.6-1.1c-0.3-0.3-0.7-0.6-1.2-0.8
			c-0.5-0.2-1.2-0.3-2-0.3c-1.5,0-3.1,0.1-4.7,0.3c-1.6,0.2-3.1,0.6-4.6,1.1l-1.5-5.9c1.9-1,3.8-1.6,5.7-2.1s3.9-0.6,6-0.6
			c1.9,0,3.6,0.2,5.1,0.5c1.5,0.3,2.7,0.9,3.7,1.6c1,0.8,1.8,1.7,2.3,3c0.5,1.2,0.8,2.7,0.8,4.5V54.1z M309.3,57.9
			c0.4,0,0.8-0.1,1.2-0.2c0.4-0.1,0.8-0.3,1.2-0.4c0.4-0.2,0.8-0.4,1.1-0.6c0.4-0.2,0.6-0.5,0.9-0.7v-5.8l-3.3,0.2
			c-1.6,0.1-2.8,0.5-3.6,1.1c-0.8,0.6-1.2,1.5-1.2,2.5C305.8,56.6,307,57.9,309.3,57.9z"/>
		<path class="st25" d="M338.2,63h-8.8V33.7h6.9l0.5,3c1.2-1.2,2.5-2.1,4-2.8c1.5-0.7,3.2-1.1,5-1.1c1.9,0,3.5,0.3,4.7,0.9
			c1.2,0.6,2.2,1.4,2.9,2.5c0.7,1.1,1.2,2.5,1.4,4.2c0.3,1.7,0.4,3.7,0.4,5.9V63h-8.8V45.6c0-1,0-1.9-0.1-2.7
			c-0.1-0.8-0.2-1.4-0.5-1.9c-0.2-0.5-0.6-0.9-1-1.1c-0.4-0.2-1-0.4-1.7-0.4c-1,0-1.8,0.2-2.6,0.5c-0.7,0.3-1.5,0.8-2.3,1.4V63z"/>
		<path class="st25" d="M370,63h-8.8V33.7h6.9l0.5,3c1.2-1.2,2.5-2.1,4-2.8c1.5-0.7,3.2-1.1,5-1.1c1.9,0,3.5,0.3,4.7,0.9
			c1.2,0.6,2.2,1.4,2.9,2.5c0.7,1.1,1.2,2.5,1.4,4.2c0.3,1.7,0.4,3.7,0.4,5.9V63h-8.8V45.6c0-1,0-1.9-0.1-2.7
			c-0.1-0.8-0.2-1.4-0.5-1.9c-0.2-0.5-0.6-0.9-1-1.1c-0.4-0.2-1-0.4-1.7-0.4c-1,0-1.8,0.2-2.6,0.5c-0.7,0.3-1.5,0.8-2.3,1.4V63z"/>
		<path class="st25" d="M407.8,56.9c1.4,0,2.8-0.1,4.2-0.4c1.4-0.2,2.8-0.5,4.1-0.9l1,5.8c-1.5,0.7-3.2,1.3-5.1,1.8
			c-1.9,0.4-4.2,0.7-6.7,0.7c-4.5,0-7.9-1.3-10.2-3.8c-2.3-2.5-3.5-6.4-3.5-11.7c0-2.7,0.3-5,0.9-7s1.5-3.6,2.6-4.8
			c1.1-1.3,2.6-2.2,4.3-2.8c1.7-0.6,3.7-0.9,5.9-0.9c2.2,0,4,0.3,5.6,1c1.6,0.7,2.8,1.6,3.9,2.8c1,1.2,1.8,2.6,2.2,4.3
			c0.5,1.7,0.7,3.5,0.7,5.5c0,0.5,0,1-0.1,1.5c-0.1,0.5-0.1,1-0.2,1.4c-0.1,0.4-0.2,0.8-0.3,1.2c-0.1,0.4-0.2,0.6-0.2,0.9h-16.1
			c0.1,1,0.2,1.8,0.5,2.5c0.3,0.7,0.7,1.3,1.3,1.7s1.3,0.8,2.1,1C405.6,56.7,406.6,56.9,407.8,56.9z M409.4,45.4
			c0-1.9-0.3-3.3-1-4.1c-0.7-0.9-1.7-1.3-3.1-1.3c-1.5,0-2.6,0.4-3.3,1.3c-0.8,0.9-1.2,2.3-1.2,4.1H409.4z"/>
		<path class="st25" d="M422.7,63V33.7h6.4l0.6,5c0.2-0.8,0.6-1.5,1.1-2.2c0.5-0.7,1.1-1.2,1.8-1.7c0.7-0.5,1.4-0.8,2.2-1.1
			c0.8-0.3,1.6-0.4,2.3-0.4c0.7,0,1.4,0,2,0.1c0.6,0.1,1.2,0.2,1.6,0.3c0.5,0.1,0.9,0.3,1.2,0.4c0.3,0.1,0.5,0.2,0.7,0.3l-1.3,6.3
			c-1-0.3-2-0.5-3.1-0.5c-1,0-2,0.2-2.9,0.6c-0.9,0.4-1.7,1-2.4,1.8c-0.7,0.8-1.2,1.9-1.5,3.2V63H422.7z"/>
		<path class="st23" d="M240.5,16.8c0.3,2.2-1.8,4.6-3.8,4.4C236.3,19.3,238.6,16.7,240.5,16.8z"/>
	</g>
</g>
</svg>
