<?xml version="1.0" encoding="UTF-8"?>
<svg enable-background="new 0 0 442.8 80.7" version="1.1" viewBox="0 0 442.8 80.7" xml:space="preserve" xmlns="http://www.w3.org/2000/svg">
<style type="text/css">
	.st0{fill:url(#s);}
	.st1{fill:url(#r);}
	.st2{fill:url(#w);}
	.st3{fill:url(#v);}
	.st4{fill:url(#q);}
	.st5{fill:url(#p);}
	.st6{fill:url(#o);}
	.st7{fill:url(#n);}
	.st8{fill:url(#m);}
	.st9{fill:url(#l);}
	.st10{fill:url(#k);}
	.st11{fill:url(#j);}
	.st12{fill:url(#i);}
	.st13{fill:url(#h);}
	.st14{fill:url(#g);}
	.st15{fill:url(#f);}
	.st16{fill:url(#e);}
	.st17{fill:url(#d);}
	.st18{fill:url(#u);}
	.st19{fill:url(#c);}
	.st20{fill:url(#b);}
	.st21{fill:url(#a);}
	.st22{fill:url(#t);}
	.st23{fill:#6DB983;}
	.st24{fill:#CC0937;}
	.st25{fill:#21A2A8;}
</style>
				<linearGradient id="s" x1="97.731" x2="14.007" y1="406.76" y2="465.84" gradientTransform="matrix(1 0 0 -1 0 466.07)" gradientUnits="userSpaceOnUse">
				<stop stop-color="#6BB27E" offset="0"/>
				<stop stop-color="#21A2A8" offset="1"/>
			</linearGradient>
			<path class="st0" d="m49.4 21.8h-20.1c-0.8 0-1.4-0.6-1.4-1.4v-18.7c0-0.8 0.6-1.4 1.4-1.4s1.4 0.6 1.4 1.4v17.3h18.7c0.8 0 1.4 0.6 1.4 1.4s-0.8 1.4-1.4 1.4z"/>
				<linearGradient id="r" x1="107.52" x2="23.8" y1="420.64" y2="479.72" gradientTransform="matrix(1 0 0 -1 0 466.07)" gradientUnits="userSpaceOnUse">
				<stop stop-color="#6BB27E" offset="0"/>
				<stop stop-color="#21A2A8" offset="1"/>
			</linearGradient>
			<path class="st1" d="m69.2 21.8h-20.1c-0.8 0-1.4-0.6-1.4-1.4s0.6-1.4 1.4-1.4h18.7v-16.8c0-0.8 0.6-1.4 1.4-1.4s1.4 0.6 1.4 1.4v18.1c0 0.9-0.6 1.5-1.4 1.5z"/>
			<linearGradient id="w" x1="98.798" x2="15.074" y1="408.28" y2="467.35" gradientTransform="matrix(1 0 0 -1 0 466.07)" gradientUnits="userSpaceOnUse">
			<stop stop-color="#6BB27E" offset="0"/>
			<stop stop-color="#21A2A8" offset="1"/>
		</linearGradient>
		<path class="st2" d="m84.3 34.9h-8.9v2h7.8v5.6l-10 3.6-10-3.6v-5.6h3.3v-2h-4.2c-0.6 0-1.1 0.6-1.1 1.1v7.5c0 0.6 0.3 0.8 0.6 0.8l11.2 4.2h0.6l11.2-4.2c0.3-0.3 0.6-0.6 0.6-0.8v-7.5c0-0.6-0.6-1.1-1.1-1.1z"/>
			<linearGradient id="v" x1="98.49" x2="14.766" y1="407.84" y2="466.91" gradientTransform="matrix(1 0 0 -1 0 466.07)" gradientUnits="userSpaceOnUse">
			<stop stop-color="#6BB27E" offset="0"/>
			<stop stop-color="#21A2A8" offset="1"/>
		</linearGradient>
		<path class="st3" d="M95.7,48.8v24.3c0,2.5-2.2,4.7-4.7,4.7H55.3c-2.5,0-4.7-2.2-4.7-4.7V19c0-1.4,0.6-2.5,1.4-3.3L64.2,4.2    c0.8-0.8,2-1.4,3.3-1.4H91c2.5,0,4.7,2.2,4.7,4.7v15.6h2.8V7.5C98.5,3.3,95.2,0,91,0H67.5c-2,0-3.6,0.8-5,2L50.2,13.4    c-1.4,1.4-2.5,3.3-2.5,5.6v54.1c0,4.2,3.3,7.5,7.5,7.5H91c4.2,0,7.5-3.3,7.5-7.5V48.8H95.7z"/>
				<linearGradient id="q" x1="97.013" x2="23.752" y1="414.49" y2="466.18" gradientTransform="matrix(1 0 0 -1 0 466.07)" gradientUnits="userSpaceOnUse">
				<stop stop-color="#6BB27E" offset="0"/>
				<stop stop-color="#21A2A8" offset="1"/>
			</linearGradient>
			<path class="st4" d="m75.6 36.8h-1.7c-0.5 0-1-0.2-1-1 0-0.5 0.2-1 1-1h1.7c0.5 0 1 0.2 1 1-0.3 0.6-0.5 1-1 1z"/>
				<linearGradient id="p" x1="94.578" x2="21.317" y1="411.04" y2="462.73" gradientTransform="matrix(1 0 0 -1 0 466.07)" gradientUnits="userSpaceOnUse">
				<stop stop-color="#6BB27E" offset="0"/>
				<stop stop-color="#21A2A8" offset="1"/>
			</linearGradient>
			<path class="st5" d="m68.3 36.8h-1.7c-0.5 0-1-0.2-1-1 0-0.5 0.2-1 1-1h1.7c0.5 0 1 0.2 1 1-0.1 0.6-0.5 1-1 1z"/>
				<linearGradient id="o" x1="88.705" x2="4.9808" y1="393.97" y2="453.04" gradientTransform="matrix(1 0 0 -1 0 466.07)" gradientUnits="userSpaceOnUse">
				<stop stop-color="#6BB27E" offset="0"/>
				<stop stop-color="#21A2A8" offset="1"/>
			</linearGradient>
			<path class="st6" d="m16.7 20.4h-5.9c-0.6 0-1.1-0.3-1.1-1.1 0-0.6 0.3-1.1 1.1-1.1h5.9c0.6 0 1.1 0.3 1.1 1.1 0.1 0.8-0.5 1.1-1.1 1.1z"/>
				<linearGradient id="n" x1="87.165" x2="3.4406" y1="391.79" y2="450.86" gradientTransform="matrix(1 0 0 -1 0 466.07)" gradientUnits="userSpaceOnUse">
				<stop stop-color="#6BB27E" offset="0"/>
				<stop stop-color="#21A2A8" offset="1"/>
			</linearGradient>
			<path class="st7" d="m35.2 30.1h-24.3c-0.6 0-1.1-0.3-1.1-1.1 0-0.6 0.3-1.1 1.1-1.1h24.3c0.6 0 1.1 0.3 1.1 1.1 0 0.9-0.6 1.1-1.1 1.1z"/>
				<linearGradient id="m" x1="82.564" x2="-1.1607" y1="385.27" y2="444.34" gradientTransform="matrix(1 0 0 -1 0 466.07)" gradientUnits="userSpaceOnUse">
				<stop stop-color="#6BB27E" offset="0"/>
				<stop stop-color="#21A2A8" offset="1"/>
			</linearGradient>
			<path class="st8" d="m35.2 39.9h-24.3c-0.6 0-1.1-0.3-1.1-1.1 0-0.6 0.3-1.1 1.1-1.1h24.3c0.6 0 1.1 0.3 1.1 1.1s-0.6 1.1-1.1 1.1z"/>
				<linearGradient id="l" x1="73.361" x2="-10.363" y1="372.22" y2="431.3" gradientTransform="matrix(1 0 0 -1 0 466.07)" gradientUnits="userSpaceOnUse">
				<stop stop-color="#6BB27E" offset="0"/>
				<stop stop-color="#21A2A8" offset="1"/>
			</linearGradient>
			<path class="st9" d="m35.2 59.4h-24.3c-0.6 0-1.1-0.3-1.1-1.1s0.3-1.1 1.1-1.1h24.3c0.6 0 1.1 0.3 1.1 1.1s-0.6 1.1-1.1 1.1z"/>
				<linearGradient id="k" x1="91.163" x2="7.4388" y1="397.45" y2="456.53" gradientTransform="matrix(1 0 0 -1 0 466.07)" gradientUnits="userSpaceOnUse">
				<stop stop-color="#6BB27E" offset="0"/>
				<stop stop-color="#21A2A8" offset="1"/>
			</linearGradient>
			<path class="st10" d="m22.6 20.4h-2.8c-0.6 0-1.1-0.3-1.1-1.1 0-0.6 0.3-1.1 1.1-1.1h2.8c0.6 0 1.1 0.3 1.1 1.1s-0.3 1.1-1.1 1.1z"/>
				<linearGradient id="j" x1="81.077" x2="-2.647" y1="383.16" y2="442.23" gradientTransform="matrix(1 0 0 -1 0 466.07)" gradientUnits="userSpaceOnUse">
				<stop stop-color="#6BB27E" offset="0"/>
				<stop stop-color="#21A2A8" offset="1"/>
			</linearGradient>
			<path class="st11" d="m29.9 47.7h5.9c0.6 0 1.1 0.3 1.1 1.1s-0.3 1.2-1.2 1.2h-5.9c-0.6 0-1.1-0.3-1.1-1.1s0.6-1.2 1.2-1.2z"/>
				<linearGradient id="i" x1="76.44" x2="-7.2847" y1="376.59" y2="435.66" gradientTransform="matrix(1 0 0 -1 0 466.07)" gradientUnits="userSpaceOnUse">
				<stop stop-color="#6BB27E" offset="0"/>
				<stop stop-color="#21A2A8" offset="1"/>
			</linearGradient>
			<path class="st12" d="m10.9 47.7h15.9c0.6 0 1.1 0.3 1.1 1.1s-0.3 1.2-1.1 1.2h-15.9c-0.6 0-1.1-0.3-1.1-1.1s0.5-1.2 1.1-1.2z"/>
			<linearGradient id="h" x1="95.755" x2="22.494" y1="412.71" y2="464.4" gradientTransform="matrix(1 0 0 -1 0 466.07)" gradientUnits="userSpaceOnUse">
			<stop stop-color="#6BB27E" offset="0"/>
			<stop stop-color="#21A2A8" offset="1"/>
		</linearGradient>
		<circle class="st13" cx="71" cy="35.9" r="1"/>
				<linearGradient id="g" x1="95.431" x2="11.706" y1="403.5" y2="462.57" gradientTransform="matrix(1 0 0 -1 0 466.07)" gradientUnits="userSpaceOnUse">
				<stop stop-color="#6BB27E" offset="0"/>
				<stop stop-color="#21A2A8" offset="1"/>
			</linearGradient>
			<path class="st14" d="m27.9 17.3v-2.8c0-0.8 0.6-1.4 1.4-1.4s1.4 0.6 1.4 1.4v2.8c0 0.8-0.6 1.4-1.4 1.4s-1.4-0.6-1.4-1.4z"/>
			<linearGradient id="f" x1="108.5" x2="24.78" y1="422.03" y2="481.1" gradientTransform="matrix(1 0 0 -1 0 466.07)" gradientUnits="userSpaceOnUse">
			<stop stop-color="#6BB27E" offset="0"/>
			<stop stop-color="#21A2A8" offset="1"/>
		</linearGradient>
		<circle class="st15" cx="97.1" cy="36" r="1.4"/>
				<linearGradient id="e" x1="114.55" x2="30.828" y1="430.6" y2="489.68" gradientTransform="matrix(1 0 0 -1 0 466.07)" gradientUnits="userSpaceOnUse">
				<stop stop-color="#6BB27E" offset="0"/>
				<stop stop-color="#21A2A8" offset="1"/>
			</linearGradient>
			<path class="st16" d="m95.7 31.8v-17.3c0-0.8 0.6-1.4 1.4-1.4s1.4 0.6 1.4 1.4v17.3c0 0.8-0.6 1.4-1.4 1.4s-1.4-0.5-1.4-1.4z"/>
				<linearGradient id="d" x1="102.06" x2="18.339" y1="412.9" y2="471.98" gradientTransform="matrix(1 0 0 -1 0 466.07)" gradientUnits="userSpaceOnUse">
				<stop stop-color="#6BB27E" offset="0"/>
				<stop stop-color="#21A2A8" offset="1"/>
			</linearGradient>
			<path class="st17" d="m95.7 58.3v-17.3c0-0.8 0.6-1.4 1.4-1.4s1.4 0.6 1.4 1.4v17.3c0 0.8-0.6 1.4-1.4 1.4s-1.4-0.5-1.4-1.4z"/>
			<linearGradient id="u" x1="80.568" x2="-3.156" y1="382.44" y2="441.51" gradientTransform="matrix(1 0 0 -1 0 466.07)" gradientUnits="userSpaceOnUse">
			<stop stop-color="#6BB27E" offset="0"/>
			<stop stop-color="#21A2A8" offset="1"/>
		</linearGradient>
		<path class="st18" d="M48.3,13.4L36,2c-1.4-1.1-3.1-2-5-2H7.5C3.3,0,0,3.3,0,7.5v36h2.8v-36C2.8,5,5,2.8,7.5,2.8H31    c1.4,0,2.5,0.6,3.3,1.4l12.3,11.4c0.8,0.8,1.4,2,1.4,3.3v54.1c0,2.5-2.2,4.7-4.7,4.7H7.5c-2.5,0-4.7-2.2-4.7-4.7v-4.2H0v4.2    c0,4.2,3.3,7.5,7.5,7.5h35.7c4.2,0,7.5-3.3,7.5-7.5V19C50.8,16.7,49.7,14.8,48.3,13.4z"/>
			<linearGradient id="c" x1="70.456" x2="-13.268" y1="368.5" y2="427.57" gradientTransform="matrix(1 0 0 -1 0 466.07)" gradientUnits="userSpaceOnUse">
			<stop stop-color="#6BB27E" offset="0"/>
			<stop stop-color="#21A2A8" offset="1"/>
		</linearGradient>
		<circle class="st19" cx="1.4" cy="48.8" r="1.4"/>
				<linearGradient id="b" x1="76.569" x2="-7.1551" y1="377.17" y2="436.24" gradientTransform="matrix(1 0 0 -1 0 466.07)" gradientUnits="userSpaceOnUse">
				<stop stop-color="#6BB27E" offset="0"/>
				<stop stop-color="#21A2A8" offset="1"/>
			</linearGradient>
			<path class="st20" d="m0 44.7v-17.6c0-0.8 0.6-1.4 1.4-1.4s1.4 0.6 1.4 1.4v17.6c0 0.8-0.6 1.4-1.4 1.4s-1.4-0.6-1.4-1.4z"/>
				<linearGradient id="a" x1="64.08" x2="-19.644" y1="359.46" y2="418.54" gradientTransform="matrix(1 0 0 -1 0 466.07)" gradientUnits="userSpaceOnUse">
				<stop stop-color="#6BB27E" offset="0"/>
				<stop stop-color="#21A2A8" offset="1"/>
			</linearGradient>
			<path class="st21" d="M0,71.2V53.6c0-0.8,0.6-1.4,1.4-1.4s1.4,0.6,1.4,1.4v17.6c0,0.8-0.6,1.4-1.4,1.4S0,72,0,71.2     z"/>
				<linearGradient id="t" x1="108.63" x2="24.903" y1="422.21" y2="481.28" gradientTransform="matrix(1 0 0 -1 0 466.07)" gradientUnits="userSpaceOnUse">
				<stop stop-color="#6BB27E" offset="0"/>
				<stop stop-color="#21A2A8" offset="1"/>
			</linearGradient>
			<path class="st22" d="m49.7 5c-11.4 0-17-2-17.3-2-0.8-0.3-1.1-1.1-0.8-1.7 0.3-0.8 1.1-1.1 1.7-0.8 0 0 5.6 2 16.5 2 10 0 15.6-1.7 15.6-1.7 0.8-0.3 1.4 0.3 1.7 0.8 0.3 0.8-0.3 1.4-0.8 1.4-0.4 0.1-6 2-16.6 2z"/>
		<path class="st23" d="M118,63V23.3h10l9.9,19.6l2.8,6.4l-0.2-26h9V63h-10l-9.9-19.6l-2.8-6.4h-0.6l0.8,4.9V63H118z"/>
		<path class="st23" d="m173.2 33.7h8.8v29.3h-6.9l-0.6-3c-1.1 1.1-2.4 2.1-3.9 2.8s-3.2 1.1-5 1.1c-1.9 0-3.5-0.3-4.7-0.9s-2.2-1.4-2.8-2.5c-0.7-1.1-1.2-2.5-1.4-4.2-0.3-1.7-0.4-3.7-0.4-6v-16.6h8.8v17.4c0 1 0 1.9 0.1 2.7s0.2 1.4 0.5 1.9c0.2 0.5 0.6 0.9 1 1.1s1 0.4 1.7 0.4c1 0 1.9-0.2 2.7-0.5 0.8-0.4 1.6-0.8 2.2-1.2v-21.8z"/>
		<path class="st23" d="m203.3 40.3h-5.4v12.7c0 0.5 0 1.1 0.1 1.6s0.2 0.9 0.4 1.3 0.4 0.7 0.7 0.9 0.7 0.3 1.2 0.3c0.7 0 1.3 0 1.7-0.1s0.8-0.2 1.2-0.4l1.1 5.9c-1.1 0.4-2.2 0.8-3.3 1.1s-2.3 0.4-3.5 0.4c-1.6 0-2.9-0.2-4-0.6s-2-1.1-2.6-1.9c-0.7-0.8-1.1-1.9-1.4-3.1s-0.4-2.7-0.4-4.3v-13.8h-2.9v-6.7h2.9l1.3-6.9 7.4-0.6v7.5h5.4v6.7z"/>
		<path class="st23" d="m208.7 63v-29.3h6.4l0.6 5c0.2-0.8 0.6-1.5 1.1-2.2s1.1-1.2 1.8-1.7 1.4-0.8 2.2-1.1 1.6-0.4 2.3-0.4 1.4 0 2 0.1 1.2 0.2 1.6 0.3c0.5 0.1 0.9 0.3 1.2 0.4s0.5 0.2 0.7 0.3l-1.3 6.3c-1-0.3-2-0.5-3.1-0.5-1 0-2 0.2-2.9 0.6s-1.7 1-2.4 1.8-1.2 1.9-1.5 3.2v17.2h-8.7z"/>
		<polygon class="st23" points="233.1 63 233.1 40.6 230.2 40.2 230.2 33.7 241.9 33.7 241.9 63"/>
		<path class="st24" d="m231.2 26.2c0-1.7 0.5-2.9 1.4-3.6s2.3-1 4-1c0.9 0 1.6 0.1 2.3 0.2 0.7 0.2 1.3 0.4 1.7 0.8 0.5 0.4 0.8 0.8 1.1 1.4s0.4 1.3 0.4 2.1c0 1.6-0.5 2.7-1.4 3.4-1 0.6-2.3 1-4.1 1-1.7 0-3-0.3-4-1-0.9-0.5-1.4-1.7-1.4-3.3z"/>
		<path class="st25" d="m258 51v12h-9.1v-39.7h12.7c2.5 0 4.7 0.3 6.7 0.8s3.7 1.3 5.1 2.4 2.5 2.5 3.2 4.2 1.1 3.7 1.1 6c0 4.8-1.3 8.4-3.9 10.7-2.6 2.4-6.5 3.5-11.8 3.5h-4zm0-7.3h3.9c2.1 0 3.6-0.5 4.7-1.6s1.6-2.8 1.6-5.1c0-1.1-0.1-2.1-0.4-2.9s-0.7-1.5-1.2-2-1.2-0.9-2-1.1-1.6-0.3-2.6-0.3h-4v13z"/>
		<path class="st25" d="m288.3 63.5c-1.2-0.3-2.3-0.8-3.2-1.5s-1.7-1.6-2.2-2.7c-0.6-1.1-0.8-2.4-0.8-3.8v-32.9l8.8-1v32.2c0 0.7 0.1 1.3 0.3 1.8s0.4 1 0.8 1.4c0.3 0.4 0.7 0.7 1.1 1s0.8 0.5 1.1 0.6l-1.9 4.7c-1.5 0.5-2.8 0.4-4 0.2z"/>
		<path class="st25" d="m322.6 54.1c0 1.3 0.2 2.3 0.7 3.1 0.4 0.8 0.9 1.3 1.5 1.6l-1.5 4.7c-0.7 0.1-1.4 0.1-2.2 0s-1.6-0.2-2.3-0.5-1.4-0.6-2-1.1-1.1-1.1-1.4-1.8c-0.5 0.5-1 1-1.5 1.4s-1.1 0.8-1.7 1.2c-0.6 0.3-1.4 0.6-2.2 0.8s-1.8 0.3-2.9 0.3c-3.2 0-5.6-0.8-7.3-2.4s-2.5-4-2.5-7.1c0-3 1-5.3 3.1-6.8s5.2-2.3 9.5-2.5l4.2-0.2v-1.5c0-0.4-0.1-0.8-0.2-1.2s-0.3-0.8-0.6-1.1-0.7-0.6-1.2-0.8-1.2-0.3-2-0.3c-1.5 0-3.1 0.1-4.7 0.3s-3.1 0.6-4.6 1.1l-1.5-5.9c1.9-1 3.8-1.6 5.7-2.1s3.9-0.6 6-0.6c1.9 0 3.6 0.2 5.1 0.5s2.7 0.9 3.7 1.6c1 0.8 1.8 1.7 2.3 3 0.5 1.2 0.8 2.7 0.8 4.5v11.8zm-13.3 3.8c0.4 0 0.8-0.1 1.2-0.2s0.8-0.3 1.2-0.4c0.4-0.2 0.8-0.4 1.1-0.6 0.4-0.2 0.6-0.5 0.9-0.7v-5.8l-3.3 0.2c-1.6 0.1-2.8 0.5-3.6 1.1s-1.2 1.5-1.2 2.5c0.2 2.6 1.4 3.9 3.7 3.9z"/>
		<path class="st25" d="m338.2 63h-8.8v-29.3h6.9l0.5 3c1.2-1.2 2.5-2.1 4-2.8s3.2-1.1 5-1.1c1.9 0 3.5 0.3 4.7 0.9s2.2 1.4 2.9 2.5 1.2 2.5 1.4 4.2c0.3 1.7 0.4 3.7 0.4 5.9v16.7h-8.8v-17.4c0-1 0-1.9-0.1-2.7s-0.2-1.4-0.5-1.9c-0.2-0.5-0.6-0.9-1-1.1s-1-0.4-1.7-0.4c-1 0-1.8 0.2-2.6 0.5-0.7 0.3-1.5 0.8-2.3 1.4v21.6z"/>
		<path class="st25" d="m370 63h-8.8v-29.3h6.9l0.5 3c1.2-1.2 2.5-2.1 4-2.8s3.2-1.1 5-1.1c1.9 0 3.5 0.3 4.7 0.9s2.2 1.4 2.9 2.5 1.2 2.5 1.4 4.2c0.3 1.7 0.4 3.7 0.4 5.9v16.7h-8.8v-17.4c0-1 0-1.9-0.1-2.7s-0.2-1.4-0.5-1.9c-0.2-0.5-0.6-0.9-1-1.1s-1-0.4-1.7-0.4c-1 0-1.8 0.2-2.6 0.5-0.7 0.3-1.5 0.8-2.3 1.4v21.6z"/>
		<path class="st25" d="m407.8 56.9c1.4 0 2.8-0.1 4.2-0.4 1.4-0.2 2.8-0.5 4.1-0.9l1 5.8c-1.5 0.7-3.2 1.3-5.1 1.8-1.9 0.4-4.2 0.7-6.7 0.7-4.5 0-7.9-1.3-10.2-3.8s-3.5-6.4-3.5-11.7c0-2.7 0.3-5 0.9-7s1.5-3.6 2.6-4.8c1.1-1.3 2.6-2.2 4.3-2.8s3.7-0.9 5.9-0.9 4 0.3 5.6 1 2.8 1.6 3.9 2.8c1 1.2 1.8 2.6 2.2 4.3 0.5 1.7 0.7 3.5 0.7 5.5 0 0.5 0 1-0.1 1.5s-0.1 1-0.2 1.4l-0.3 1.2c-0.1 0.4-0.2 0.6-0.2 0.9h-16.1c0.1 1 0.2 1.8 0.5 2.5s0.7 1.3 1.3 1.7 1.3 0.8 2.1 1c0.9 0 1.9 0.2 3.1 0.2zm1.6-11.5c0-1.9-0.3-3.3-1-4.1-0.7-0.9-1.7-1.3-3.1-1.3-1.5 0-2.6 0.4-3.3 1.3-0.8 0.9-1.2 2.3-1.2 4.1h8.6z"/>
		<path class="st25" d="m422.7 63v-29.3h6.4l0.6 5c0.2-0.8 0.6-1.5 1.1-2.2s1.1-1.2 1.8-1.7 1.4-0.8 2.2-1.1 1.6-0.4 2.3-0.4 1.4 0 2 0.1 1.2 0.2 1.6 0.3c0.5 0.1 0.9 0.3 1.2 0.4s0.5 0.2 0.7 0.3l-1.3 6.3c-1-0.3-2-0.5-3.1-0.5-1 0-2 0.2-2.9 0.6s-1.7 1-2.4 1.8-1.2 1.9-1.5 3.2v17.2h-8.7z"/>
		<path class="st23" d="m240.5 16.8c0.3 2.2-1.8 4.6-3.8 4.4-0.4-1.9 1.9-4.5 3.8-4.4z"/>
</svg>
